<?xml version="1.0" standalone="no"?>
<!DOCTYPE svg PUBLIC "-//W3C//DTD SVG 20010904//EN"
 "http://www.w3.org/TR/2001/REC-SVG-20010904/DTD/svg10.dtd">
<svg version="1.0" xmlns="http://www.w3.org/2000/svg"
 width="1336.000000pt" height="1336.000000pt" viewBox="0 0 1336.000000 1336.000000"
 preserveAspectRatio="xMidYMid meet">
<metadata>
Created by potrace 1.14, written by Peter Selinger 2001-2017
</metadata>
<g transform="translate(0.000000,1336.000000) scale(0.100000,-0.100000)"
fill="#000000" stroke="none">
<path d="M6603 11597 c-50 -10 -94 -52 -129 -123 -28 -57 -29 -66 -18 -211 5
-77 4 -97 -10 -118 -16 -24 -20 -25 -119 -24 -56 1 -113 -2 -127 -5 -14 -4
-50 -9 -80 -12 -30 -3 -86 -12 -125 -20 -38 -8 -95 -14 -125 -14 -30 0 -82 -4
-115 -10 -33 -5 -83 -11 -110 -14 -28 -2 -102 -19 -165 -36 -63 -17 -127 -33
-143 -35 -15 -2 -31 -6 -35 -9 -4 -2 -28 -7 -52 -11 -25 -3 -52 -8 -62 -11 -9
-3 -42 -6 -75 -8 -32 -2 -112 -22 -178 -44 -95 -31 -243 -76 -320 -96 -5 -1
-28 -10 -50 -20 -67 -30 -113 -45 -157 -51 -24 -4 -66 -20 -95 -36 -68 -39
-85 -31 -112 54 -19 61 -101 197 -137 228 -11 8 -41 25 -69 36 -44 17 -56 18
-100 8 -91 -21 -147 -56 -182 -115 -37 -60 -37 -91 -4 -160 11 -22 22 -55 26
-73 3 -18 22 -65 43 -104 50 -97 54 -91 -108 -168 -52 -24 -140 -76 -195 -114
-55 -39 -123 -77 -151 -85 -28 -9 -70 -31 -95 -49 -24 -19 -89 -63 -144 -99
-55 -36 -116 -80 -135 -98 -19 -17 -48 -39 -65 -47 -62 -33 -135 -86 -188
-139 -31 -29 -84 -72 -119 -94 -35 -22 -67 -43 -73 -48 -5 -4 -30 -22 -55 -39
-25 -17 -54 -44 -65 -59 -11 -15 -50 -51 -87 -80 -76 -62 -132 -116 -203 -198
-92 -107 -92 -107 -117 -97 -13 5 -41 29 -63 54 -22 24 -60 58 -85 73 -25 16
-58 41 -73 56 -33 33 -64 42 -120 35 -23 -3 -60 -8 -82 -12 -29 -4 -48 -14
-68 -38 -38 -44 -42 -49 -45 -72 -2 -11 -8 -25 -12 -30 -14 -17 -20 -132 -9
-165 7 -19 42 -55 98 -99 99 -79 141 -126 141 -156 0 -24 -47 -95 -78 -116
-10 -8 -55 -63 -100 -124 -45 -60 -85 -114 -89 -120 -26 -34 -63 -94 -74 -120
-11 -24 -165 -240 -209 -292 -6 -7 -8 -13 -5 -13 3 0 1 -6 -4 -12 -10 -12 -61
-109 -135 -254 -17 -33 -47 -79 -67 -102 -23 -27 -39 -58 -43 -82 -3 -22 -20
-63 -37 -90 -17 -28 -41 -79 -53 -114 -12 -34 -36 -80 -53 -102 -17 -21 -43
-75 -58 -119 -15 -44 -37 -100 -50 -125 -12 -25 -28 -61 -34 -81 -11 -33 -51
-84 -51 -64 0 4 -6 3 -12 -2 -7 -6 -22 -9 -33 -7 -64 10 -92 17 -104 27 -8 7
-15 10 -15 8 -1 -2 -25 4 -55 14 -83 27 -128 26 -180 -3 -55 -31 -64 -39 -86
-81 -48 -93 -25 -209 59 -296 l51 -54 115 -23 c118 -23 152 -41 145 -75 -2
-10 -15 -46 -29 -81 -13 -34 -25 -65 -25 -67 -1 -3 -1 -6 -2 -7 -3 -11 -10
-50 -14 -83 -3 -22 -8 -58 -11 -80 -3 -22 -13 -58 -23 -80 -20 -43 -58 -235
-65 -325 -6 -70 -16 -175 -21 -220 -2 -20 -9 -49 -15 -65 -15 -38 -20 -98 -24
-265 -1 -75 -5 -140 -9 -146 -9 -15 -19 -112 -17 -159 2 -41 1 -177 -4 -350
-1 -55 0 -104 3 -110 9 -18 12 -49 16 -195 8 -256 19 -361 49 -478 9 -35 16
-77 16 -94 0 -57 20 -63 213 -61 95 1 210 5 257 8 136 8 170 8 260 0 47 -5
132 -8 190 -7 58 1 258 4 445 7 187 3 358 5 380 6 22 0 76 -3 121 -8 44 -5 96
-5 115 -1 19 4 59 5 89 2 30 -4 69 -5 85 -3 30 3 210 3 450 0 72 -1 200 1 285
4 218 7 275 6 339 -4 71 -11 318 -7 351 6 14 6 41 8 60 5 19 -3 64 -5 100 -4
36 0 83 1 105 1 22 0 132 -2 245 -5 275 -7 376 -7 495 1 147 9 329 10 420 1
108 -10 592 -11 685 -2 41 5 86 7 100 7 49 -4 357 -10 465 -9 61 0 151 0 200
0 50 1 178 -2 286 -5 139 -3 210 -1 245 8 27 7 62 10 79 8 66 -9 298 -15 475
-12 25 0 182 0 350 -1 168 -1 359 1 425 4 181 9 244 9 318 -1 38 -5 105 -7
150 -5 79 5 436 7 527 3 25 -1 124 1 220 4 96 3 231 5 300 4 177 -2 331 -2
430 0 47 1 109 -2 138 -7 51 -9 177 -7 252 3 19 2 71 4 115 3 112 -2 444 -1
605 1 74 2 250 0 390 -3 336 -8 441 -8 730 4 19 1 52 -3 73 -8 21 -6 62 -8 90
-5 29 2 92 5 141 6 118 3 123 10 127 190 1 51 7 107 15 125 16 38 23 104 29
257 3 61 8 133 11 160 9 68 9 446 0 518 -4 31 -9 117 -11 190 -3 72 -8 159
-12 192 -3 33 -5 76 -3 95 5 66 3 85 -23 210 -35 163 -38 185 -52 330 -6 69
-23 145 -40 186 -9 21 -18 52 -20 68 -7 53 -28 147 -58 268 -11 40 -12 59 -4
67 6 6 8 11 4 11 -14 0 28 37 58 53 17 8 69 27 118 41 74 23 94 34 131 72 53
54 71 110 62 191 -7 69 -25 96 -97 145 -76 53 -103 59 -164 37 -27 -9 -66 -20
-85 -24 -19 -4 -63 -20 -98 -37 -37 -17 -70 -27 -82 -23 -11 3 -26 26 -36 53
-10 26 -30 80 -46 120 -16 40 -29 84 -30 98 -1 13 -6 24 -11 24 -4 0 -6 4 -2
9 3 5 -15 39 -40 76 -25 36 -53 87 -61 113 -9 26 -31 79 -49 117 -18 39 -45
95 -59 125 -14 30 -37 73 -51 95 -13 22 -27 47 -32 55 -4 8 -17 29 -29 47 -12
18 -41 72 -64 120 -24 48 -62 109 -85 135 -35 39 -57 85 -54 114 0 4 -3 10 -8
13 -5 3 -21 26 -35 51 -14 25 -49 74 -77 109 -28 35 -61 80 -73 100 -12 20
-40 59 -62 86 -23 28 -55 68 -71 90 -16 22 -53 65 -81 96 -71 77 -79 94 -61
123 8 12 54 63 102 112 107 109 123 138 139 249 5 35 -15 74 -63 124 -61 63
-94 79 -156 76 -72 -3 -131 -33 -200 -101 -67 -67 -135 -114 -163 -114 -20 0
-242 210 -242 229 0 15 -14 29 -60 61 -19 13 -55 45 -80 70 -25 26 -74 66
-109 90 -36 24 -96 74 -135 112 -38 37 -74 68 -80 68 -10 0 -92 55 -361 241
-71 49 -158 104 -192 121 -35 18 -63 38 -63 45 0 7 -4 13 -9 13 -5 0 -26 11
-48 25 -21 14 -41 25 -46 25 -14 -1 -73 33 -190 109 -65 42 -121 76 -125 77
-41 3 -73 18 -77 37 -6 28 -3 41 23 100 12 27 22 53 22 58 0 5 3 9 8 9 19 0
35 62 38 144 3 77 0 95 -18 125 -27 46 -73 89 -122 111 -36 17 -42 17 -95 2
-59 -16 -120 -53 -168 -100 -26 -26 -67 -121 -78 -182 -7 -37 -26 -69 -45 -75
-9 -3 -48 6 -86 21 -38 14 -73 26 -79 27 -5 2 -14 5 -20 8 -5 4 -55 21 -110
39 -55 18 -115 41 -133 52 -38 23 -226 74 -322 88 -36 5 -85 18 -110 29 -41
18 -66 25 -135 36 -33 6 -58 13 -90 25 -16 6 -58 13 -92 15 -35 2 -92 13 -126
24 -88 28 -158 38 -302 45 -49 2 -102 9 -117 15 -16 6 -28 8 -28 6 0 -2 -10
-1 -22 4 -13 5 -99 12 -193 15 -93 4 -177 8 -185 10 -38 6 -60 19 -61 34 0 9
-2 28 -5 42 -2 14 -5 79 -6 145 -4 140 -23 193 -85 235 -30 21 -49 25 -104 25
-37 0 -85 -3 -106 -8z m126 -82 c16 -8 45 -36 65 -63 34 -47 36 -53 35 -128 0
-44 2 -95 6 -115 6 -30 3 -40 -16 -57 -20 -20 -32 -21 -152 -18 -143 3 -148 5
-141 66 2 19 4 73 4 120 1 115 29 164 115 197 41 16 51 15 84 -2z m-139 -473
c72 2 113 2 180 -1 30 -1 100 -1 155 1 62 3 116 -1 144 -9 25 -7 80 -12 133
-10 49 2 120 0 156 -4 135 -16 170 -21 252 -34 19 -3 51 -7 70 -10 19 -2 46
-7 60 -10 14 -3 43 -8 65 -11 66 -9 109 -16 133 -23 1 -1 3 -1 5 0 1 0 19 -7
40 -16 20 -8 37 -13 37 -10 0 4 6 3 13 -2 6 -4 21 -6 33 -5 29 4 85 -11 184
-48 52 -20 108 -33 145 -35 36 -2 102 -18 165 -40 58 -20 116 -39 130 -41 67
-13 340 -122 340 -136 0 -7 80 -35 121 -43 43 -8 153 -58 189 -85 28 -22 119
-70 140 -74 3 -1 10 -4 15 -7 6 -4 23 -9 40 -13 28 -7 154 -65 165 -76 3 -3
28 -17 55 -31 177 -92 251 -137 280 -169 11 -12 47 -36 80 -52 33 -17 80 -45
105 -62 25 -18 68 -42 95 -55 28 -12 70 -42 95 -65 25 -23 68 -57 95 -76 28
-19 67 -51 88 -71 21 -21 55 -45 75 -55 20 -9 60 -40 88 -68 73 -74 175 -166
184 -166 4 0 15 -9 25 -20 11 -12 36 -31 57 -42 21 -12 52 -44 69 -70 17 -26
35 -48 39 -48 5 0 109 -100 232 -222 173 -173 236 -242 278 -308 59 -92 124
-177 153 -198 32 -24 58 -56 79 -97 12 -22 20 -41 20 -42 -1 -2 14 -19 33 -39
19 -20 51 -64 71 -97 20 -34 53 -82 73 -107 21 -25 49 -65 62 -90 13 -25 26
-47 29 -50 8 -8 30 -49 76 -140 23 -47 53 -97 66 -112 12 -15 34 -49 48 -75
25 -48 92 -159 108 -178 5 -6 12 -27 16 -46 3 -19 20 -61 37 -94 35 -67 80
-175 73 -175 -2 0 6 -17 19 -37 33 -54 107 -210 107 -226 0 -7 4 -17 9 -22 14
-16 64 -177 67 -217 2 -20 25 -96 52 -170 28 -73 53 -152 56 -176 3 -24 7 -46
10 -50 2 -4 7 -24 10 -44 3 -20 17 -71 31 -112 14 -42 26 -99 26 -128 1 -31
11 -77 25 -110 17 -41 24 -74 23 -122 -1 -35 2 -69 5 -74 15 -24 -23 -31 -214
-35 -14 0 -59 3 -100 8 -116 12 -132 12 -180 -3 -30 -9 -63 -11 -100 -6 -30 4
-161 6 -290 5 -372 -2 -671 -3 -895 0 -60 0 -141 0 -180 -1 -165 -4 -283 -3
-330 4 -27 4 -90 7 -140 6 -108 -3 -191 -3 -307 -1 -48 1 -136 -2 -195 -6 -59
-4 -130 -6 -158 -5 -42 2 -197 8 -355 12 -19 0 -60 1 -90 0 -30 0 -71 0 -90 1
-19 1 -62 -3 -95 -8 -33 -4 -93 -5 -133 0 -42 5 -99 4 -134 -1 -34 -5 -94 -7
-133 -5 -38 2 -198 4 -355 3 -369 -2 -434 -2 -560 2 -58 1 -170 0 -249 -3
-105 -4 -154 -2 -182 7 -31 11 -45 11 -81 0 -24 -7 -56 -11 -73 -10 -16 1 -46
4 -65 5 -19 2 -57 0 -85 -4 -32 -5 -68 -3 -100 6 -27 7 -68 10 -91 7 -22 -3
-54 -5 -70 -4 -100 8 -214 6 -246 -5 -25 -8 -62 -10 -120 -4 -92 8 -197 8
-394 0 -87 -3 -152 -1 -193 8 -33 7 -62 11 -63 10 -7 -7 -168 -20 -223 -18
-33 1 -116 2 -185 2 -69 0 -154 0 -190 1 -112 3 -359 3 -500 1 -74 -2 -187 -3
-250 -3 -63 0 -153 -1 -200 -1 -47 -1 -125 1 -175 2 -49 2 -155 3 -234 3 -79
-1 -147 1 -151 3 -12 8 -144 7 -240 -1 -111 -9 -203 -10 -245 -1 -39 8 -378
10 -620 3 -104 -3 -194 -6 -200 -5 -5 0 -71 2 -145 4 -174 7 -454 6 -595 -1
-60 -3 -132 -5 -160 -5 -27 0 -250 0 -495 0 -566 0 -624 0 -742 3 l-97 2 4 86
c2 47 9 103 15 125 6 22 12 49 14 60 6 40 18 90 24 100 4 6 8 15 9 20 1 6 12
42 23 80 11 39 22 79 24 90 2 11 11 45 20 75 9 30 18 77 22 104 3 27 18 78 34
112 15 34 30 82 33 105 3 24 8 51 10 59 3 8 8 26 13 40 4 14 26 61 49 105 22
44 47 96 55 115 7 19 19 49 26 65 33 77 53 136 59 176 3 26 21 65 40 95 19 27
44 79 56 114 11 35 34 83 50 106 16 23 54 91 85 151 50 98 131 228 161 260 6
7 17 27 25 45 46 110 168 310 242 398 31 36 83 100 116 142 33 42 65 80 71 83
6 4 35 40 65 81 30 41 72 91 92 112 21 20 49 53 63 73 48 69 134 178 142 179
8 0 81 64 101 88 6 8 47 48 91 90 44 43 114 112 155 154 41 42 100 93 130 113
30 20 60 45 67 55 8 11 42 38 77 60 35 23 80 61 100 85 20 23 53 51 74 61 20
9 62 40 92 69 30 28 84 68 120 90 36 21 70 44 77 50 6 7 37 24 70 40 32 15 84
52 115 82 49 46 69 59 81 51 1 -1 21 11 44 25 24 15 47 27 53 27 5 0 10 4 10
9 0 4 33 23 72 41 40 18 107 53 148 78 98 60 215 122 237 127 25 4 107 37 113
45 20 24 77 51 136 64 38 8 113 35 167 60 93 43 164 68 178 63 3 -1 13 4 21
11 20 16 326 125 383 136 78 15 254 60 283 72 50 21 153 43 225 49 34 3 87 12
117 21 30 9 73 18 95 20 46 3 99 11 133 19 34 8 107 23 142 30 66 13 112 17
190 20 115 4 253 15 258 20 3 2 50 2 106 0 55 -2 126 -3 156 -3z m-2583 -123
c13 -7 23 -21 23 -31 0 -10 3 -18 8 -18 4 0 12 -9 17 -19 6 -10 23 -40 40 -67
29 -48 56 -130 48 -150 -6 -17 -75 -52 -118 -59 -22 -4 -49 -15 -60 -25 -38
-34 -65 -43 -82 -28 -16 13 -42 67 -48 100 -2 10 -15 40 -29 68 -14 27 -23 50
-20 50 2 0 0 9 -6 19 -7 14 -7 22 0 26 6 4 8 11 4 16 -11 19 27 100 56 118 33
19 130 20 167 0z m5500 -7 c77 -40 100 -94 68 -156 -9 -17 -17 -44 -19 -60 -1
-17 -10 -48 -19 -70 -10 -21 -17 -42 -17 -47 0 -5 -4 -9 -8 -9 -5 0 -13 -10
-19 -23 -6 -12 -20 -23 -33 -24 -34 -3 -250 106 -250 125 1 33 128 257 155
273 34 21 89 18 142 -9z m-7806 -1654 c19 -14 55 -36 80 -51 69 -39 121 -101
115 -137 -5 -33 -36 -90 -49 -90 -5 0 -27 -20 -50 -44 -57 -59 -70 -62 -109
-23 -18 17 -53 43 -78 56 -81 43 -105 74 -116 152 -4 25 1 47 16 74 52 92 121
115 191 63z m10074 7 c41 -29 53 -41 74 -75 33 -55 28 -92 -21 -148 -24 -27
-52 -60 -63 -73 -11 -14 -38 -39 -60 -55 -53 -41 -86 -39 -122 6 -16 19 -52
60 -80 91 -29 31 -53 63 -53 72 0 8 19 31 43 50 180 150 193 158 237 150 14
-2 34 -10 45 -18z m-11445 -2450 c0 3 9 1 21 -5 11 -7 33 -14 47 -16 62 -11
92 -26 98 -49 8 -34 -52 -211 -78 -229 -28 -20 -121 -12 -178 15 -135 64 -150
79 -150 157 0 93 42 142 123 142 18 0 39 4 46 9 10 7 24 3 43 -10 15 -11 28
-18 28 -14z m12848 20 c17 -4 32 -11 32 -16 0 -5 7 -9 15 -9 36 0 60 -161 31
-205 -15 -22 -67 -57 -81 -54 -3 1 -18 -3 -33 -9 -26 -10 -55 -19 -70 -23 -4
-2 -27 -8 -50 -16 -69 -20 -94 3 -125 117 -8 30 -22 72 -31 93 -15 35 -15 38
1 44 10 4 21 10 24 15 3 5 24 10 47 13 23 2 66 17 97 33 54 29 80 32 143 17z
m-5149 -1256 c47 0 113 0 146 0 33 1 85 1 115 0 65 -1 303 -2 375 -1 313 4
735 5 875 2 63 -1 151 -2 195 -2 44 1 103 1 130 1 28 0 88 0 135 0 47 0 103 0
125 0 22 1 126 0 230 -1 261 -3 477 0 555 8 36 3 79 5 95 4 31 -2 192 -8 300
-11 33 -2 94 1 135 5 104 11 319 9 357 -2 17 -6 56 -8 85 -6 76 6 308 8 478 3
41 -1 103 -2 138 -2 69 0 151 0 245 0 34 0 114 1 177 1 79 1 118 -2 126 -11 7
-6 15 -55 18 -108 3 -62 12 -111 25 -139 10 -23 18 -47 17 -54 -2 -6 -6 -32
-11 -59 -8 -52 -25 -68 -64 -58 -14 3 -33 6 -41 6 -18 -1 -127 -16 -150 -20
-9 -2 -40 3 -69 11 -30 7 -58 11 -64 7 -5 -3 -193 -8 -416 -9 -223 -2 -449 -4
-501 -5 -52 -1 -134 4 -182 10 -48 6 -102 8 -120 5 -18 -4 -51 -6 -73 -5 -45
3 -135 3 -305 1 -129 -1 -179 -2 -230 -1 -19 0 -114 0 -210 0 -189 -1 -336 -1
-415 1 -27 0 -61 -2 -75 -5 -14 -3 -63 -5 -110 -4 -169 3 -747 2 -835 -1 -49
-2 -117 0 -150 3 -87 10 -452 5 -517 -7 -15 -2 -53 2 -84 11 -46 12 -70 12
-118 4 -34 -6 -108 -11 -166 -10 -58 0 -116 -1 -130 -3 -14 -2 -38 0 -55 5
-46 13 -471 15 -530 2 -51 -12 -99 -11 -235 1 -109 11 -174 10 -275 -1 -98
-11 -268 -11 -337 0 -62 11 -132 11 -223 1 -44 -5 -123 -7 -175 -5 -136 5
-337 3 -395 -2 -27 -3 -70 -2 -95 3 -55 11 -274 11 -470 1 -80 -4 -179 -5
-220 -3 -93 4 -271 4 -410 -1 -58 -2 -139 1 -180 5 -41 5 -104 7 -140 6 -36
-2 -135 -3 -220 -2 -203 2 -412 2 -530 0 -52 -1 -192 0 -310 1 -255 3 -338 4
-405 1 -60 -3 -59 -3 -360 2 -132 2 -296 0 -365 -5 -151 -10 -183 -10 -235 -1
-22 3 -71 6 -110 5 -38 0 -257 -3 -485 -5 -228 -3 -424 -6 -435 -7 -11 -2 -60
1 -110 6 -49 4 -112 7 -140 5 -65 -3 -113 -4 -150 -2 -16 1 -64 0 -106 -3
-103 -7 -118 4 -101 72 7 28 10 69 7 95 -4 28 0 68 10 107 9 34 15 80 13 103
-3 58 12 66 119 59 48 -3 115 -4 148 -3 33 1 146 1 250 1 196 -2 274 -2 505 0
74 1 153 1 175 1 77 -1 163 -1 470 0 171 0 371 0 445 -1 139 -1 275 -1 440 1
234 2 1236 2 1485 -1 203 -2 318 -2 425 1 47 1 225 2 395 2 171 0 337 1 370 1
33 0 96 -1 140 -2 44 -2 109 -2 145 -2 72 1 643 0 730 -1 30 -1 93 1 140 4 47
3 100 1 118 -4 48 -13 126 -15 217 -3 44 5 177 9 295 7 334 -5 481 -4 535 6
28 5 61 5 74 0 12 -5 62 -9 110 -9z m-7524 -513 c33 -1 79 -6 101 -10 27 -5
61 -2 99 8 31 8 66 13 78 10 12 -2 94 -7 182 -10 194 -6 166 -6 360 0 88 2
176 1 195 -3 19 -4 55 -3 80 1 25 5 54 10 65 12 11 2 39 -2 62 -9 32 -10 119
-11 360 -6 175 3 365 5 423 4 58 -1 157 -2 220 -1 270 1 318 1 380 -1 36 -1
101 -2 145 -2 44 0 91 -1 105 -1 14 0 79 4 145 8 66 4 143 7 170 6 138 -4 232
-4 351 -2 73 1 140 -3 150 -8 11 -5 42 -8 69 -6 28 2 73 3 100 3 28 -1 82 0
120 1 39 1 111 2 160 2 50 -1 119 -1 155 -1 36 0 202 2 370 4 168 3 343 5 390
5 148 -2 199 -2 243 0 39 1 103 -4 189 -16 21 -3 56 0 79 6 45 12 417 15 569
4 47 -3 112 -5 145 -3 33 1 105 1 160 0 55 -1 152 -2 215 -1 149 1 580 2 787
2 89 -1 175 3 190 7 15 4 48 6 73 4 76 -6 313 -14 355 -12 22 2 67 2 100 2 33
-1 137 -1 230 -1 94 0 193 -1 220 -1 211 -2 400 0 510 6 177 9 266 8 360 -2
44 -5 127 -8 185 -7 91 2 835 2 990 1 30 -1 111 2 180 6 69 4 152 7 185 5 106
-3 405 -3 604 2 128 3 209 0 240 -7 27 -7 72 -9 110 -5 63 6 571 4 603 -2 10
-2 20 -7 24 -10 3 -4 13 -4 21 -1 14 5 15 -2 9 -53 -3 -33 -2 -73 3 -89 5 -17
11 -80 14 -141 4 -137 -2 -150 -65 -137 -24 5 -74 8 -113 6 -132 -5 -170 -6
-370 -3 -169 3 -351 -5 -363 -15 -2 -2 -29 3 -61 11 -32 7 -80 11 -107 9 -27
-3 -179 -5 -339 -5 -159 0 -310 -1 -335 -2 -25 -1 -94 -1 -155 -1 -117 2 -653
3 -770 3 -38 0 -104 0 -145 0 -41 0 -86 -1 -100 -3 -14 -1 -44 3 -67 9 -22 7
-43 11 -45 9 -9 -9 -149 -14 -193 -7 -31 5 -71 4 -105 -3 -30 -6 -100 -9 -155
-7 -55 3 -127 4 -160 2 -76 -3 -231 -4 -315 -3 -36 1 -78 2 -95 2 -16 0 -91 1
-165 3 -105 3 -297 -4 -405 -14 -5 -1 -59 3 -120 7 -60 4 -148 7 -195 6 -91
-1 -389 -1 -480 0 -30 1 -134 1 -230 0 -332 -2 -605 -2 -710 -2 -58 1 -154 0
-215 0 -60 -1 -177 -1 -260 0 -82 1 -193 1 -245 0 -52 -1 -147 -2 -210 -1 -63
0 -151 0 -195 0 -186 0 -248 0 -390 2 -82 1 -217 -1 -300 -5 -159 -8 -213 -8
-227 1 -10 6 -175 5 -248 -1 -78 -7 -193 -6 -260 4 -36 5 -87 6 -115 4 -27 -3
-120 -4 -205 -2 -85 2 -218 2 -295 1 -255 -4 -279 -4 -390 1 -176 8 -210 8
-400 1 -99 -3 -202 -5 -230 -4 -27 1 -216 1 -420 0 -203 0 -428 0 -500 1 -234
3 -325 3 -725 0 -217 -1 -421 -1 -453 1 -32 3 -80 0 -107 -6 -57 -11 -119 4
-138 35 -16 26 -17 95 -2 158 10 43 10 61 0 91 -33 100 43 177 160 163 25 -2
72 -6 105 -7z m-35 -521 c14 -2 34 -6 45 -8 11 -3 38 1 60 9 28 9 67 12 130 8
83 -5 301 -8 555 -6 58 0 132 -1 165 -3 33 -2 64 0 70 3 20 12 53 12 111 -1
33 -7 88 -12 124 -10 69 3 1461 13 1985 14 171 0 327 -4 347 -9 20 -5 55 -6
78 -2 22 4 66 5 98 3 31 -3 62 -4 67 -4 60 7 305 8 309 2 3 -5 23 -7 43 -5
151 16 225 19 513 17 360 -2 424 -2 490 -1 40 1 113 -5 194 -16 16 -2 49 2 75
8 53 14 576 13 651 -1 25 -5 63 -5 85 -1 59 11 184 11 231 0 40 -9 166 -8 213
2 44 10 516 8 541 -1 14 -6 34 -9 45 -6 27 4 274 16 350 15 33 0 143 -1 245
-1 102 -1 199 -1 215 0 17 1 53 -1 80 -5 70 -9 271 -8 325 2 29 5 66 4 103 -3
31 -6 59 -10 61 -7 4 4 402 14 601 16 66 0 154 -3 195 -8 95 -11 178 -11 255
-1 33 4 78 7 100 6 36 -2 220 -3 476 -1 52 0 142 -2 200 -6 57 -3 109 -6 114
-6 6 1 66 5 135 9 69 4 159 7 200 6 79 -1 360 -2 665 -1 99 0 223 -1 275 -2
52 -2 138 -3 190 -2 52 0 133 0 179 -1 47 -2 105 0 130 3 25 3 79 0 120 -6 48
-8 86 -8 108 -2 19 5 48 8 65 6 29 -3 32 -6 37 -48 6 -57 6 -181 -1 -289 -6
-91 -20 -114 -61 -105 -27 6 -113 15 -176 18 -25 1 -59 -3 -76 -9 -17 -7 -52
-10 -80 -8 -85 9 -465 8 -565 0 -75 -6 -104 -5 -137 7 -22 8 -44 12 -47 8 -7
-7 -356 -15 -491 -11 -49 2 -124 2 -165 0 -152 -5 -266 -4 -302 3 -34 6 -72 7
-258 4 -30 0 -93 0 -140 2 -77 3 -233 -6 -281 -15 -11 -2 -40 2 -67 8 -32 9
-67 10 -112 3 -42 -5 -81 -5 -111 2 -25 6 -63 8 -85 6 -21 -3 -64 -5 -94 -4
-30 1 -75 1 -100 0 -170 -5 -486 -11 -540 -10 -36 0 -213 0 -395 0 -309 -1
-392 0 -670 3 -60 0 -177 -1 -260 -3 -82 -2 -161 0 -173 4 -41 14 -72 14 -115
1 -23 -7 -51 -11 -62 -9 -36 6 -139 7 -185 1 -27 -4 -61 -1 -85 7 -22 8 -58
12 -80 9 -45 -5 -64 -5 -225 -2 -69 2 -123 -1 -135 -8 -13 -7 -56 -9 -120 -5
-105 6 -243 6 -462 0 -85 -3 -149 0 -180 8 -26 7 -57 11 -68 9 -35 -8 -158
-17 -215 -17 -30 0 -129 0 -220 0 -91 0 -192 1 -225 2 -100 4 -380 4 -545 1
-85 -1 -213 -3 -285 -3 -71 0 -173 0 -225 0 -52 -1 -144 0 -205 2 -60 1 -157
2 -215 1 -58 -1 -159 1 -225 5 -138 8 -168 8 -249 -1 -75 -9 -125 -8 -311 3
-82 5 -190 7 -240 4 -112 -6 -181 -7 -220 -1 -16 3 -55 0 -85 -6 -41 -8 -71
-8 -118 0 -34 6 -64 10 -66 7 -3 -2 -42 -4 -88 -3 -227 5 -517 -1 -658 -12
-25 -2 -81 0 -125 4 -93 10 -105 10 -545 3 -424 -7 -487 -7 -530 -1 -19 3 -63
6 -98 6 -71 1 -84 14 -72 80 3 20 0 62 -7 94 -13 57 -12 207 2 239 4 9 14 19
23 21 19 4 163 -1 202 -8z m847 -518 c175 3 352 5 393 5 132 -1 481 -2 600 -2
63 1 230 0 370 -1 140 -1 325 1 410 6 85 4 160 7 165 6 27 -3 438 -11 570 -11
83 0 177 0 210 0 33 -1 94 0 135 0 93 2 844 3 960 2 47 -1 211 -2 365 -2 369
0 411 0 503 1 42 1 97 -2 122 -7 26 -6 75 -6 115 -1 95 11 482 15 525 6 20 -5
99 -4 175 1 168 12 133 11 290 4 72 -3 150 -5 175 -5 25 0 77 0 115 0 95 -2
290 -2 345 0 25 1 124 1 220 0 96 0 220 2 275 6 143 10 166 10 298 -5 69 -7
143 -10 175 -5 32 4 73 7 92 7 57 0 162 -1 200 -2 19 0 55 0 80 1 81 1 173 1
320 -1 80 -2 174 1 210 5 36 4 74 7 85 6 185 -13 277 -14 335 -5 69 10 397 9
475 -2 44 -6 129 -9 190 -6 60 3 148 5 195 5 47 0 153 -1 235 -1 83 0 182 -1
220 -3 39 -1 93 -2 120 -2 63 1 171 1 255 0 36 0 162 1 280 3 118 3 249 1 290
-3 56 -6 85 -4 115 6 28 10 48 11 65 5 14 -5 45 -9 70 -8 74 2 103 2 154 -3
39 -4 122 11 140 25 2 2 13 -5 23 -15 14 -12 31 -16 57 -13 30 4 39 1 51 -18
14 -22 14 -42 0 -117 -2 -10 -5 -56 -6 -101 -4 -149 -22 -183 -102 -191 -29
-3 -61 -7 -72 -10 -11 -3 -54 1 -95 8 -41 7 -104 11 -140 8 -36 -2 -81 -4
-100 -3 -19 0 -98 0 -175 0 -212 -2 -362 -2 -445 -2 -145 2 -474 2 -620 0 -41
0 -91 1 -110 2 -19 2 -62 0 -95 -4 -69 -8 -76 -8 -245 -2 -201 8 -497 7 -522
-2 -25 -9 -115 -8 -212 3 -67 7 -124 8 -296 0 -195 -8 -247 -7 -270 5 -15 8
-38 10 -64 5 -23 -4 -102 -9 -176 -11 -74 -1 -144 -5 -155 -7 -11 -2 -31 0
-45 6 -32 12 -433 16 -485 4 -47 -11 -209 -10 -263 1 -45 9 -154 8 -242 -3
-80 -10 -292 -9 -340 1 -45 10 -135 9 -230 -1 -41 -4 -120 -6 -175 -4 -124 4
-323 3 -390 -1 -27 -2 -77 0 -110 4 -72 10 -265 10 -475 -1 -85 -4 -184 -6
-220 -4 -86 5 -277 5 -420 1 -63 -2 -153 1 -200 5 -47 5 -110 7 -140 5 -30 -2
-134 -3 -230 -2 -192 2 -395 2 -565 0 -60 -1 -209 0 -330 2 -215 3 -319 3
-440 -1 -77 -2 -96 -2 -425 3 -227 3 -407 -2 -535 -13 -11 -1 -63 1 -115 6
-52 4 -129 7 -170 7 -121 -2 -684 -12 -695 -13 -5 -1 -26 2 -45 6 -19 4 -73 6
-120 5 -47 -1 -123 -2 -170 -1 -47 0 -119 0 -160 -1 -205 0 -471 0 -615 1 -88
1 -180 0 -204 -2 -24 -3 -55 -1 -70 2 -14 4 -44 2 -66 -4 -31 -9 -53 -9 -100
1 -33 7 -66 13 -72 13 -9 1 -13 17 -13 46 0 26 -7 60 -17 78 -10 20 -16 54
-15 91 0 33 -5 78 -13 100 -11 35 -13 55 -6 100 0 5 21 6 46 3 24 -4 47 -2 50
3 3 5 39 7 83 4 42 -4 106 -5 142 -4 104 5 172 4 218 -2 23 -3 59 0 79 7 28
10 44 10 79 -1 34 -10 115 -12 361 -7z"/>
<path d="M3536 7533 c-2 -3 -113 -6 -246 -7 -155 -2 -245 -7 -252 -14 -6 -6
-13 -30 -16 -54 -5 -41 -4 -310 1 -471 2 -43 -1 -81 -5 -83 -5 -3 -5 -10 -1
-17 3 -6 7 -116 7 -245 1 -219 2 -234 20 -248 27 -20 70 -18 90 4 18 21 21 82
11 328 -5 134 -4 153 11 165 13 11 57 14 178 16 255 3 279 12 244 88 l-12 26
-184 -4 c-236 -6 -263 4 -245 89 6 30 6 203 0 239 -4 22 11 74 21 76 13 2 418
9 462 8 25 0 60 -1 77 -1 18 -1 42 7 52 16 19 17 19 20 4 52 -11 21 -25 35
-37 35 -58 5 -176 5 -180 2z"/>
<path d="M9433 7532 c-35 -4 -47 -15 -57 -54 -9 -37 16 -59 59 -54 41 5 56
-10 79 -84 10 -30 34 -86 54 -125 20 -38 56 -110 80 -160 24 -49 57 -105 72
-125 17 -20 29 -47 29 -65 0 -16 0 -59 1 -95 1 -36 -3 -79 -9 -97 -6 -20 -6
-47 1 -75 19 -85 19 -86 -4 -94 -23 -8 -52 -12 -115 -15 -18 0 -38 -8 -45 -16
-16 -20 -18 -81 -2 -87 6 -2 47 -3 91 -1 43 2 94 0 113 -4 19 -4 58 -3 87 2
30 5 70 5 95 0 62 -13 76 -7 84 34 11 57 -3 68 -84 68 -39 0 -74 4 -79 8 -4 5
-9 52 -9 105 -1 54 -2 131 -3 172 -2 104 1 112 53 220 26 52 55 111 64 130 9
19 20 37 23 40 3 3 29 52 57 110 56 114 82 150 112 150 31 0 50 11 50 30 0 11
4 21 10 25 12 7 1 36 -19 52 -9 7 -27 9 -41 6 -14 -3 -75 -6 -135 -7 -61 -1
-117 -6 -124 -10 -23 -15 16 -105 46 -106 20 0 20 -23 0 -74 -10 -28 -22 -55
-25 -61 -4 -5 -7 -15 -8 -21 -3 -18 -74 -158 -93 -183 -27 -36 -47 -21 -85 62
-18 40 -41 79 -51 87 -25 21 -86 156 -78 175 3 9 19 19 35 22 39 8 52 35 38
78 -6 19 -15 36 -18 37 -13 3 -218 3 -249 0z"/>
<path d="M4658 7514 c-36 -19 -40 -39 -33 -154 11 -183 11 -365 0 -415 -7 -30
-8 -62 -3 -80 4 -16 10 -82 12 -146 3 -93 8 -123 25 -158 32 -61 83 -114 143
-146 29 -16 68 -36 86 -46 43 -23 114 -20 209 9 95 29 159 74 208 145 38 55
40 63 41 136 1 43 6 86 11 97 5 10 7 89 6 174 -5 200 -5 312 0 429 2 52 2 105
-1 117 -8 44 -111 58 -113 16 -6 -120 -9 -211 -8 -277 0 -44 0 -91 0 -105 0
-14 -3 -122 -5 -241 -6 -268 -13 -292 -112 -359 -57 -38 -109 -53 -158 -47
-112 16 -187 102 -201 232 -14 119 -19 324 -15 525 3 142 -6 263 -21 293 -12
21 -35 21 -71 1z"/>
<path d="M6261 7514 c-29 -12 -31 -16 -32 -66 0 -29 1 -80 2 -113 2 -33 2
-130 1 -215 -3 -316 -1 -686 4 -702 3 -9 15 -20 27 -24 12 -4 24 -10 27 -15 9
-14 45 1 60 24 13 22 14 76 5 557 -3 163 -1 176 25 190 46 24 104 -44 145
-170 10 -30 71 -159 136 -287 66 -128 119 -238 119 -245 0 -7 10 -26 23 -42
22 -28 26 -28 80 -22 81 10 86 21 81 165 -2 64 -5 121 -5 126 -1 6 2 26 6 45
9 40 8 165 -2 225 -3 22 -5 54 -4 70 10 149 15 403 8 450 -5 38 -24 59 -56 61
-23 1 -36 -4 -46 -20 -19 -28 -30 -136 -27 -256 2 -52 5 -163 7 -246 4 -148
-4 -197 -30 -196 -5 0 -17 -4 -25 -8 -32 -17 -62 29 -136 213 -24 60 -59 127
-78 150 -28 35 -75 132 -116 242 -26 69 -44 105 -54 106 -62 6 -83 9 -97 12
-9 3 -30 -2 -48 -9z"/>
<path d="M7901 7513 c-52 -21 -66 -62 -62 -183 3 -112 3 -146 0 -572 -2 -257
-1 -278 17 -309 29 -49 75 -72 137 -69 29 2 96 2 150 1 112 -2 177 13 282 65
57 28 77 45 105 87 19 29 37 54 40 57 15 13 60 135 66 178 3 26 8 51 11 55 6
10 5 141 -2 182 -13 79 -20 142 -20 160 0 11 -3 22 -6 25 -3 3 -16 34 -29 70
-28 77 -42 100 -112 171 -83 86 -107 92 -345 93 -139 1 -211 -3 -232 -11z
m413 -110 c38 -14 74 -30 80 -37 57 -60 105 -167 121 -267 4 -24 8 -106 10
-182 2 -118 0 -145 -17 -190 -19 -49 -63 -118 -80 -125 -4 -2 -8 -8 -8 -14 0
-14 -62 -68 -77 -68 -7 0 -13 -4 -13 -9 0 -11 -101 -32 -165 -35 -76 -3 -126
12 -162 46 -41 40 -46 65 -45 233 2 304 3 472 1 505 -3 65 1 77 40 118 42 44
58 50 136 54 71 4 100 0 179 -29z"/>
<path d="M10000 2948 c-68 -8 -185 -58 -228 -99 -55 -50 -127 -199 -148 -304
-31 -154 -22 -363 20 -483 24 -67 152 -239 196 -262 9 -5 35 -11 58 -15 23 -3
61 -13 83 -21 55 -19 64 -18 172 12 82 22 99 31 144 74 44 42 132 160 118 160
-2 0 7 24 20 54 50 113 59 253 30 471 -12 93 -65 226 -109 273 -42 46 -121 91
-196 113 -25 7 -49 16 -55 19 -21 14 -42 16 -105 8z m184 -137 c68 -42 136
-144 150 -226 3 -16 8 -41 11 -54 9 -47 18 -156 16 -206 -3 -53 -8 -110 -11
-110 -1 0 -3 -11 -6 -25 -2 -14 -7 -36 -11 -50 -3 -14 -5 -29 -5 -33 4 -17
-60 -136 -91 -167 -62 -63 -89 -73 -202 -73 -51 0 -81 5 -110 20 -68 35 -132
111 -150 178 -4 17 -9 35 -11 40 -2 6 -6 24 -9 40 -3 17 -8 37 -11 46 -2 9 -7
34 -10 55 -2 22 -7 48 -10 58 -13 40 -3 151 16 187 6 10 10 39 10 64 0 43 13
83 30 95 4 3 20 28 35 55 62 113 104 135 252 130 63 -2 89 -7 117 -24z"/>
<path d="M12246 2943 c-1 -1 -16 -5 -34 -8 -221 -39 -328 -329 -175 -474 46
-44 131 -88 215 -111 46 -13 99 -34 118 -47 20 -12 58 -30 85 -38 65 -19 66
-20 104 -88 26 -46 34 -70 34 -111 0 -49 -24 -116 -41 -116 -4 0 -20 -12 -36
-26 -30 -28 -119 -67 -130 -57 -3 4 -6 1 -6 -5 0 -6 -6 -10 -12 -7 -7 2 -29 6
-48 8 -54 7 -90 18 -90 28 0 5 -3 8 -7 8 -21 -3 -36 5 -84 49 -54 49 -88 108
-89 154 0 33 -29 44 -67 26 l-28 -13 -1 -156 c-1 -181 4 -195 60 -185 34 7 41
14 37 44 -2 15 23 42 39 42 6 0 28 -13 48 -30 52 -42 115 -62 202 -64 104 -3
161 9 228 49 31 19 53 35 49 35 -4 0 8 14 27 30 48 43 79 112 81 185 1 33 -2
66 -8 73 -5 6 -7 12 -3 12 4 0 -1 15 -11 33 -9 17 -16 35 -15 40 1 4 -2 7 -8
7 -5 0 -10 6 -11 13 -1 24 -196 169 -224 166 -20 -2 -81 18 -143 47 -41 19
-78 34 -82 34 -5 0 -10 3 -12 8 -1 4 -16 15 -33 24 -16 9 -43 33 -60 53 -25
31 -30 45 -28 86 1 51 35 119 60 119 7 0 16 6 20 14 29 50 145 70 233 39 50
-17 130 -75 130 -94 0 -5 14 -31 30 -57 17 -27 30 -57 30 -66 0 -9 8 -16 18
-17 9 0 27 -2 39 -5 39 -7 55 21 48 85 -9 78 -12 162 -5 166 4 2 4 20 2 40 -5
40 -34 60 -63 44 -9 -4 -19 -6 -22 -2 -3 3 -9 -7 -13 -21 -6 -24 -30 -46 -51
-46 -4 0 -19 10 -33 23 -27 25 -68 43 -115 52 -29 6 -145 12 -149 8z"/>
<path d="M5095 2916 c-21 -21 -23 -31 -20 -98 1 -42 6 -81 10 -88 4 -6 6 -39
5 -73 -1 -34 -1 -75 -1 -92 1 -33 0 -213 -2 -377 -1 -66 -6 -108 -12 -108 -7
0 -7 -3 0 -8 6 -4 10 -62 10 -137 l0 -130 38 -18 c36 -17 41 -17 63 -2 18 11
24 25 25 53 1 20 3 53 3 72 1 19 -2 49 -7 65 -11 37 -16 125 -7 125 4 0 6 105
5 234 -1 129 1 240 5 246 3 6 16 12 28 15 16 3 29 -9 60 -58 69 -108 281 -542
289 -592 5 -35 47 -110 78 -141 19 -19 30 -21 71 -17 62 6 84 18 85 46 5 79
-2 261 -15 402 -1 11 3 40 9 65 10 38 12 296 6 556 -1 52 -31 86 -68 79 -15
-2 -32 -10 -39 -17 -15 -15 -28 -112 -24 -178 3 -47 3 -86 0 -180 -2 -51 7
-315 11 -336 5 -29 -4 -52 -25 -62 -41 -19 -35 -29 -259 413 -30 59 -119 257
-137 302 -13 34 -27 43 -75 48 -16 2 -43 6 -58 9 -21 4 -35 -1 -52 -18z"/>
<path d="M647 2924 c-1 -2 -21 -4 -42 -5 -49 -3 -90 -22 -100 -46 -14 -35 -19
-191 -17 -498 3 -601 -1 -534 32 -566 16 -16 34 -29 42 -30 129 -7 321 -3 356
8 23 6 64 12 90 11 49 -1 122 27 159 61 20 19 71 116 78 148 2 10 7 36 12 58
16 69 -20 184 -77 244 -59 61 -57 119 4 184 15 15 24 27 21 27 -3 0 1 13 9 28
26 50 21 164 -9 223 -16 30 -74 79 -93 79 -7 0 -12 3 -12 8 0 9 -67 39 -126
57 -35 10 -317 19 -327 9z m184 -109 c119 -9 176 -18 202 -34 92 -54 91 -224
-2 -290 -36 -26 -110 -53 -122 -45 -5 3 -9 1 -9 -4 0 -12 -60 -15 -155 -7 -22
1 -48 3 -58 4 -11 1 -31 14 -46 30 -27 29 -27 30 -26 159 3 178 27 217 125
199 25 -4 66 -10 91 -12z m-48 -479 c9 0 17 -3 17 -6 0 -3 26 -6 58 -6 53 -2
98 -7 166 -20 41 -9 104 -69 111 -107 12 -76 13 -97 4 -103 -5 -3 -7 -10 -4
-15 9 -13 -29 -93 -56 -118 -30 -28 -99 -62 -110 -55 -5 3 -9 0 -9 -6 0 -6 -5
-8 -10 -5 -6 4 -17 2 -23 -4 -7 -5 -22 -10 -32 -10 -11 -1 -33 -1 -50 -2 -16
0 -63 2 -104 5 -66 5 -76 8 -100 35 l-27 31 2 167 c2 107 7 169 13 171 6 2 11
9 11 17 0 20 61 45 95 38 17 -3 38 -6 48 -7z"/>
<path d="M8055 2919 c-4 -6 -13 -8 -21 -5 -20 8 -34 -27 -35 -86 -1 -29 0 -57
1 -63 1 -5 2 -14 1 -19 -7 -32 -13 -162 -12 -221 6 -212 -4 -480 -18 -480 -2
0 -4 -10 -7 -23 -4 -22 -54 -105 -54 -89 0 4 -9 -1 -20 -11 -44 -38 -163 -58
-230 -39 -8 2 -34 8 -57 12 -23 4 -51 17 -61 29 -21 22 -62 95 -66 118 -7 33
-21 51 -49 63 -26 11 -32 10 -47 -5 -30 -30 -31 -53 -5 -109 30 -64 148 -185
203 -208 45 -19 64 -21 177 -23 76 -2 99 2 146 23 65 28 116 79 152 151 33 65
74 255 70 321 -2 28 -6 142 -8 255 -2 113 -6 222 -8 244 -2 21 -1 55 3 76 4
20 3 46 -1 58 -10 26 -45 47 -54 31z"/>
<path d="M3077 2902 c-8 -9 -22 -42 -32 -72 -10 -30 -29 -76 -42 -103 -13 -26
-26 -70 -28 -98 -3 -29 -15 -69 -29 -93 -27 -47 -65 -154 -73 -206 -3 -19 -23
-87 -44 -150 -22 -63 -41 -119 -43 -125 -1 -5 -12 -30 -24 -55 -12 -25 -24
-58 -27 -75 -11 -66 -16 -89 -20 -95 -7 -11 34 -50 53 -50 21 0 62 27 62 41 0
6 11 34 24 62 12 29 33 82 45 119 38 116 27 110 251 112 159 1 197 -2 211 -14
15 -13 99 -242 101 -277 2 -14 16 -22 71 -38 38 -10 59 16 52 65 -3 19 -8 49
-10 65 -8 50 -10 58 -33 102 -12 22 -26 58 -31 80 -24 97 -45 167 -87 283 -25
69 -59 163 -76 210 -16 47 -34 96 -40 110 -5 14 -9 26 -9 28 1 1 -5 15 -13 31
-8 15 -17 41 -20 55 -9 51 -27 96 -39 97 -83 10 -136 7 -150 -9z m102 -235
c11 -14 39 -87 47 -122 2 -10 17 -41 34 -68 16 -26 30 -56 30 -66 0 -10 3 -21
7 -25 4 -4 8 -17 9 -29 1 -12 5 -40 9 -63 9 -61 -9 -75 -94 -73 -36 1 -95 -2
-131 -6 -58 -6 -67 -4 -87 15 -25 23 -28 45 -12 87 6 15 23 69 39 118 35 115
89 233 109 238 27 8 28 7 40 -6z"/>
</g>
</svg>
