<?xml version="1.0" encoding="UTF-8"?>
<svg id="Layer_2" data-name="Layer 2" xmlns="http://www.w3.org/2000/svg" viewBox="0 0 247.66 182.9">
  <defs>
    <style>
      .cls-1 {
        stroke: #231f20;
        stroke-width: 1.1px;
      }

      .cls-1, .cls-2 {
        fill: none;
        stroke-miterlimit: 10;
      }

      .cls-2 {
        stroke: #fff;
        stroke-width: 2.94px;
      }

      .cls-3 {
        fill: #fff;
        stroke-width: 0px;
      }
    </style>
  </defs>
  <g id="Layer_1-2" data-name="Layer 1">
    <g id="Layer_1_copy" data-name="Layer 1 copy">
      <line class="cls-1" x1="6.38" y1="148.81" x2="6.3" y2="148.81"/>
      <g>
        <path class="cls-2" d="m243.11,129.6c0,.12.04.12.04.23,0,.79.21,1.59.2,2.38s-.37,1.57-.4,2.36-.03,1.58-.07,2.37.09,1.59.02,2.38c-.05.64-.02,1.28-.08,1.91s-.48,1.23-.55,1.86-.12,1.27-.2,1.9-.2,1.26-.29,1.89.05,1.37-.05,1.99c-1.02.29-1.08-.08-2.14-.08s-1.06-.25-2.12-.25-1.06.18-2.12.18-1.06.07-2.12.07-1.06.24-2.12.24-1.06-.44-2.12-.44-1.06.38-2.12.38-1.06,0-2.12,0-1.06-.06-2.12-.06-1.06-.12-2.12-.12h-2.12c-1.06,0-1.06.06-2.12.06s-1.06.03-2.12.03-1.06.15-2.12.15h-4.24c-1.06,0-1.06-.45-2.12-.45s-1.06.3-2.12.3-1.06-.14-2.12-.14-1.06.23-2.12.23-1.06-.08-2.12-.08-1.06.04-2.12.04-1.06-.08-2.12-.08-1.06-.32-2.12-.32-1.06.09-2.12.09-1.06.1-2.12.1-1.06.3-2.12.3-1.06-.3-2.12-.3-1.06.25-2.12.25-1.06-.43-2.12-.43-1.06.3-2.12.3-1.06.2-2.12.2-1.06-.16-2.12-.16-1.06-.29-2.12-.29-1.06.26-2.12.26-1.06-.03-2.12-.03-1.06-.24-2.12-.24-1.06.08-2.12.08-1.06.33-2.12.33-1.06-.22-2.12-.22-1.06-.18-2.12-.18-1.06.05-2.12.05-1.06.17-2.12.17-1.06.02-2.12.02-1.06.22-2.12.22-1.06-.25-2.12-.25-1.06.11-2.12.11-1.06-.18-2.12-.18-1.06.32-2.12.32-1.06-.04-2.12-.04-1.06-.06-2.12-.06-1.06-.29-2.12-.29-1.06.18-2.12.18-1.06-.18-2.12-.18-1.06.13-2.12.13-1.06.22-2.12.22-1.06-.2-2.12-.2-1.06.09-2.12.09-1.06-.05-2.12-.05-1.06-.29-2.12-.29-1.06.03-2.12.03-1.06-.06-2.12-.06-1.06.03-2.12.03-1.06.2-2.12.2-1.06-.15-2.12-.15-1.06.25-2.12.25-1.06.14-2.12.14-1.06-.45-2.12-.45-1.06.03-2.12.03-1.06.19-2.12.19-1.06.17-2.12.17-1.06-.03-2.12-.03-1.06-.12-2.12-.12-1.06-.27-2.12-.27-1.06.42-2.12.42-1.06-.34-2.12-.34-1.06.13-2.12.13-1.06.09-2.12.09-1.06-.22-2.12-.22h-2.12c-1.06,0-1.06-.02-2.12-.02s-1.06.39-2.12.39-1.06-.21-2.12-.21-1.06,0-2.12,0-1.06.04-2.12.04-1.06.08-2.12.08-1.06-.31-2.12-.31-1.06-.02-2.12-.02-1.06.36-2.12.36-1.06.08-2.12.08-1.06-.1-2.12-.1h-2.12c-1.06,0-1.06.1-2.12.1s-1.06-.49-2.12-.49-1.06.46-2.12.46-1.06-.26-2.12-.26-1.06-.03-2.12-.03-1.06,0-2.12,0-1.06-.04-2.12-.04-1.06.27-2.12.27-1.06-.14-2.12-.14-1.06.21-2.12.21-1.06-.22-2.12-.22-1.06-.26-2.12-.26-1.06.18-2.12.18-1.06.3-2.12.3-1.06-.23-2.12-.23-1.06-.09-2.12-.09-1.06-.09-2.13-.09-1.06.3-2.13.3-1.04-.08-2.06-.37c-.1-.63-.47-1-.56-1.63s.12-1.3.04-1.94-.07-1.27-.14-1.91-.58-1.22-.65-1.86-.04-1.28-.09-1.92c-.06-.79-.08-1.58-.13-2.37s.12-1.59.09-2.38.03-1.58,0-2.37-.21-1.58-.22-2.37c0-.12.19-.12.19-.23,0-.77-.08-1.55-.07-2.32s0-1.55.03-2.32.17-1.54.21-2.31-.1-1.56-.04-2.32c.05-.64.38-1.25.44-1.88s-.32-1.31-.25-1.95.4-1.24.48-1.87.27-1.25.36-1.88.02-1.29.12-1.91c.11-.69.17-1.4.3-2.09s.41-1.35.55-2.04-.04-1.44.11-2.13.42-1.35.58-2.03.51-1.32.68-2,.08-1.43.26-2.11.44-1.34.63-2.01.51-1.32.72-1.99.36-1.36.58-2.03.41-1.35.64-2.01.56-1.29.8-1.95.54-1.3.79-1.95.59-1.28.86-1.92.57-1.28.84-1.93.28-1.41.57-2.05.65-1.25.95-1.88.62-1.26.93-1.89.86-1.14,1.18-1.76.56-1.29.9-1.9.7-1.22,1.04-1.83.5-1.33.86-1.94.82-1.15,1.18-1.75.65-1.25,1.02-1.84.69-1.23,1.08-1.81.83-1.13,1.23-1.71,1.07-.97,1.47-1.54.63-1.28,1.05-1.84c.42-.56.94-1.05,1.37-1.61s.77-1.18,1.2-1.73.84-1.12,1.29-1.66.89-1.08,1.35-1.62,1.12-.88,1.59-1.41.61-1.34,1.08-1.86,1.26-.74,1.74-1.25.92-1.06,1.41-1.56.7-1.29,1.2-1.78,1.35-.62,1.86-1.1.98-1,1.5-1.48.96-1.03,1.49-1.49.9-1.11,1.43-1.57,1.3-.63,1.85-1.08.9-1.12,1.44-1.56,1.02-.98,1.57-1.41,1.35-.54,1.92-.95,1.08-.9,1.65-1.31,1.18-.75,1.76-1.15,1.04-.96,1.63-1.35,1.34-.5,1.94-.88,1.01-1.04,1.6-1.4,1.34-.49,1.95-.85,1.09-.91,1.7-1.26,1.24-.67,1.85-1,1.39-.37,2.01-.7,1.18-.77,1.81-1.08,1.17-.81,1.8-1.11,1.31-.52,1.95-.81,1.33-.46,1.98-.74,1.26-.62,1.91-.89,1.37-.34,2.03-.6,1.23-.71,1.89-.96,1.39-.27,2.06-.5,1.2-.83,1.87-1.05,1.38-.31,2.05-.52,1.41-.17,2.09-.36,1.28-.63,1.96-.82,1.43-.08,2.11-.25,1.34-.42,2.02-.58,1.29-.68,1.97-.83,1.4-.15,2.09-.29,1.35-.41,2.05-.53,1.42-.04,2.11-.16,1.4-.13,2.09-.23,1.36-.39,2.06-.48,1.41,0,2.11-.08,1.41.07,2.11,0,1.37-.43,2.07-.48,1.41.15,2.12.11,1.4-.13,2.1-.16,1.4-.16,2.1-.17,1.4.03,2.11.03,1.41,0,2.11.02,1.41,0,2.11,0,1.4.18,2.1.21,1.41-.09,2.11-.04,1.37.43,2.07.49,1.44-.31,2.14-.24,1.38.32,2.07.41,1.39.21,2.08.31,1.36.38,2.05.49,1.42,0,2.11.12,1.34.49,2.02.63,1.47-.18,2.16-.03,1.36.36,2.05.52,1.36.37,2.04.54,1.3.57,1.98.76,1.4.21,2.07.41,1.33.47,2,.67,1.29.57,1.96.79,1.31.51,1.97.74,1.44.14,2.1.39,1.32.48,1.98.73,1.29.55,1.94.82,1.24.67,1.89.95,1.29.55,1.93.84,1.26.61,1.9.91,1.19.75,1.82,1.06,1.39.36,2.02.68,1.18.78,1.79,1.11,1.14.84,1.75,1.19,1.23.67,1.83,1.03,1.41.38,2.01.75,1.1.89,1.7,1.26,1.31.57,1.89.95,1.03.99,1.61,1.39,1.31.58,1.88.99,1.01,1,1.58,1.41,1.25.67,1.81,1.1.87,1.17,1.42,1.61,1.04.94,1.58,1.39,1.4.52,1.93.97,1.02.97,1.55,1.43.84,1.16,1.36,1.64,1.08.9,1.59,1.38,1.15.83,1.65,1.32.81,1.17,1.3,1.67.94,1.04,1.42,1.55,1.09.9,1.56,1.42.78,1.18,1.25,1.71.96,1.02,1.41,1.56.95,1.03,1.39,1.58.81,1.15,1.25,1.7,1.11.91,1.54,1.47.69,1.24,1.11,1.8c.42.56.74,1.2,1.14,1.77s1.03.99,1.42,1.57.77,1.18,1.16,1.76.76,1.18,1.13,1.78.6,1.28.96,1.88.9,1.09,1.26,1.7.87,1.12,1.22,1.73.43,1.36.77,1.98.59,1.27.92,1.9.67,1.23.98,1.86.56,1.29.86,1.92.5,1.31.79,1.95,1,1.09,1.28,1.74.27,1.41.53,2.06.61,1.27.86,1.92.41,1.34.66,2,.59,1.28.82,1.94.49,1.32.71,1.98.57,1.3.77,1.97-.06,1.48.13,2.16.45,1.33.63,2,.77,1.25.94,1.93-.15,1.48,0,2.16.39,1.35.54,2.03.71,1.29.85,1.98-.08,1.44.04,2.14.24,1.38.35,2.08c.1.63.03,1.28.12,1.91s.53,1.21.61,1.85.14,1.27.21,1.9-.19,1.3-.13,1.93.42,1.24.47,1.88c.06.77-.15,1.56-.1,2.33s.26,1.53.29,2.3.31,1.54.33,2.31-.35,1.55-.35,2.32l-.04.11Z"/>
        <path class="cls-2" d="m6.3,110.6c1.06,0,1.06.15,2.12.15s1.06.34,2.12.34,1.06-.19,2.12-.19,1.06.03,2.12.03,1.06-.2,2.12-.2,1.06-.07,2.12-.07,1.06.38,2.12.38,1.06-.34,2.12-.34,1.06.04,2.12.04,1.06.34,2.12.34,1.06-.13,2.12-.13,1.06-.29,2.12-.29,1.06.04,2.12.04,1.06.08,2.12.08,1.06-.1,2.12-.1,1.06.02,2.12.02,1.06.16,2.12.16,1.06.24,2.12.24,1.06-.13,2.12-.13,1.06.16,2.12.16,1.06-.48,2.12-.48,1.06.26,2.12.26,1.06-.03,2.12-.03,1.06.05,2.12.05,1.06-.27,2.12-.27,1.06.4,2.12.4,1.06.05,2.12.05,1.06-.43,2.12-.43,1.06.27,2.12.27,1.06.18,2.12.18,1.06-.08,2.12-.08,1.06-.4,2.12-.4,1.06.17,2.12.17,1.06.1,2.12.1,1.06-.08,2.12-.08,1.06.13,2.12.13,1.06-.11,2.12-.11,1.06,0,2.12,0,1.06-.08,2.12-.08,1.06-.02,2.12-.02,1.06.13,2.12.13,1.06.14,2.12.14,1.06-.32,2.12-.32,1.06-.06,2.12-.06,1.06.48,2.12.48,1.06-.12,2.12-.12,1.06-.04,2.12-.04,1.06-.22,2.12-.22,1.06.33,2.12.33,1.06-.05,2.12-.05,1.06-.19,2.12-.19,1.06-.09,2.12-.09,1.06.36,2.12.36,1.06-.03,2.12-.03,1.06.03,2.12.03,1.06-.29,2.12-.29,1.06.08,2.12.08,1.06.25,2.12.25,1.06-.18,2.12-.18,1.06-.07,2.12-.07,1.06-.24,2.12-.24,1.06.44,2.12.44,1.06-.38,2.12-.38,1.06,0,2.12,0,1.06.06,2.12.06,1.06.12,2.12.12h2.12c1.06,0,1.06-.06,2.12-.06s1.06-.03,2.12-.03,1.06-.15,2.12-.15h4.24c1.06,0,1.06.45,2.12.45s1.06-.3,2.12-.3,1.06.14,2.12.14,1.06-.23,2.12-.23,1.06.08,2.12.08,1.06-.04,2.12-.04,1.06.08,2.12.08,1.06.32,2.12.32,1.06-.09,2.12-.09,1.06-.1,2.12-.1,1.06-.3,2.12-.3,1.06.3,2.12.3,1.06-.25,2.12-.25,1.06.43,2.12.43,1.06-.3,2.12-.3,1.06-.2,2.12-.2,1.06.16,2.12.16,1.06.29,2.12.29,1.06-.26,2.12-.26,1.06.03,2.12.03,1.06.24,2.12.24,1.06-.08,2.12-.08,1.06-.33,2.12-.33,1.06.22,2.12.22,1.06.18,2.12.18,1.06-.05,2.12-.05,1.06-.17,2.12-.17,1.06-.02,2.12-.02,1.06-.22,2.13-.22,1.06.25,2.12.25,1.06-.11,2.12-.11,1.06.18,2.13.18,1.06-.32,2.13-.32,1.06.04,2.12.04,1.06.06,2.13.06,1.06.29,2.13.29,1.06-.18,2.13-.18,1.07.18,2.13.18,1.07-.13,2.13-.13"/>
        <path class="cls-2" d="m4.83,120.34c1.05,0,1.05.02,2.11.02s1.05.06,2.11.06,1.05-.1,2.11-.1,1.05-.21,2.11-.21,1.05-.02,2.11-.02,1.05.39,2.11.39,1.05-.38,2.11-.38,1.05.03,2.11.03,1.05.26,2.11.26,1.05-.25,2.11-.25,1.05.26,2.11.26,1.05-.29,2.11-.29,1.05.46,2.11.46,1.05-.27,2.11-.27,1.05,0,2.11,0,1.05-.24,2.11-.24,1.05.17,2.11.17,1.05.23,2.11.23,1.05-.19,2.11-.19,1.05.03,2.11.03,1.05-.19,2.11-.19,1.05.2,2.11.2,1.05.2,2.11.2,1.05-.12,2.11-.12,1.06.08,2.11.08,1.05-.35,2.11-.35,1.05.21,2.11.21,1.05-.26,2.11-.26,1.05.1,2.11.1,1.05.37,2.11.37,1.05.03,2.11.03,1.05-.1,2.11-.1,1.05-.29,2.11-.29h2.11c1.06,0,1.06.08,2.11.08s1.05-.19,2.11-.19,1.05.42,2.11.42,1.05-.12,2.11-.12,1.05-.23,2.11-.23,1.05.02,2.11.02,1.05.17,2.11.17h2.11c1.06,0,1.06.16,2.11.16s1.05-.41,2.11-.41,1.05.08,2.11.08,1.05-.09,2.11-.09,1.05.15,2.11.15,1.05.34,2.11.34,1.05-.19,2.11-.19,1.05.03,2.11.03,1.05-.2,2.11-.2,1.05-.07,2.11-.07,1.05.38,2.11.38,1.05-.34,2.11-.34,1.05.04,2.11.04,1.06.34,2.11.34,1.06-.13,2.11-.13,1.05-.29,2.11-.29,1.05.04,2.11.04,1.05.08,2.11.08,1.05-.1,2.11-.1,1.05.02,2.11.02,1.05.16,2.11.16,1.05.24,2.11.24,1.05-.13,2.11-.13,1.06.16,2.11.16,1.06-.48,2.11-.48,1.05.26,2.11.26,1.05-.03,2.11-.03,1.05.05,2.11.05,1.05-.27,2.11-.27,1.05.4,2.11.4,1.06.05,2.11.05,1.06-.43,2.11-.43,1.05.27,2.11.27,1.05.18,2.11.18,1.05-.08,2.11-.08,1.06-.4,2.11-.4,1.06.17,2.11.17,1.06.1,2.11.1,1.06-.08,2.11-.08,1.05.13,2.11.13,1.06-.11,2.11-.11,1.06,0,2.11,0,1.06-.08,2.11-.08,1.06-.02,2.11-.02,1.06.13,2.11.13,1.06.14,2.11.14,1.06-.32,2.11-.32,1.06-.06,2.11-.06,1.06.48,2.11.48,1.06-.12,2.11-.12,1.06-.04,2.11-.04,1.06-.22,2.11-.22,1.06.33,2.11.33,1.06-.05,2.11-.05,1.05-.19,2.11-.19,1.06-.09,2.11-.09,1.06.36,2.11.36,1.06-.03,2.11-.03,1.06.03,2.11.03,1.06-.29,2.11-.29,1.06.08,2.11.08,1.06.25,2.11.25,1.06-.18,2.11-.18,1.06-.07,2.11-.07,1.06-.24,2.11-.24,1.06.44,2.11.44,1.06-.38,2.11-.38,1.06,0,2.11,0,1.06.06,2.12.06,1.06.12,2.12.12h2.12"/>
        <path class="cls-2" d="m4.83,129.98c1.05,0,1.05-.02,2.11-.02s1.05-.08,2.11-.08,1.05-.02,2.11-.02,1.05-.08,2.11-.08,1.05,0,2.11,0,1.05.29,2.11.29,1.05-.26,2.11-.26,1.05.06,2.11.06,1.05-.16,2.11-.16,1.05.25,2.11.25,1.05.05,2.11.05,1.05,0,2.11,0,1.05-.19,2.11-.19,1.05.13,2.11.13,1.05-.29,2.11-.29,1.05-.03,2.11-.03,1.05.37,2.11.37,1.05-.1,2.11-.1,1.05.23,2.11.23,1.05-.32,2.11-.32,1.05.1,2.11.1,1.05-.16,2.11-.16,1.05.2,2.11.2h2.11c1.06,0,1.06.16,2.11.16s1.05-.45,2.11-.45,1.05.17,2.11.17,1.05.07,2.11.07,1.05.09,2.11.09h2.11c1.06,0,1.05-.24,2.11-.24s1.05.33,2.11.33,1.05-.21,2.11-.21,1.05.21,2.11.21,1.06-.37,2.11-.37,1.05.2,2.11.2,1.05-.05,2.11-.05,1.05-.04,2.11-.04,1.05.02,2.11.02,1.05-.11,2.11-.11,1.05.14,2.11.14,1.05.21,2.11.21,1.06.04,2.11.04,1.05-.34,2.11-.34,1.05.37,2.11.37,1.05-.25,2.11-.25,1.05.02,2.11.02,1.05.06,2.11.06,1.05-.1,2.11-.1,1.05-.21,2.11-.21,1.05-.02,2.11-.02,1.05.39,2.11.39,1.05-.38,2.11-.38,1.05.03,2.11.03,1.05.26,2.11.26,1.06-.25,2.11-.25,1.06.26,2.11.26,1.05-.29,2.11-.29,1.05.46,2.11.46,1.05-.27,2.11-.27,1.05,0,2.11,0,1.05-.24,2.11-.24,1.05.17,2.11.17,1.05.23,2.11.23,1.05-.19,2.11-.19,1.06.03,2.11.03,1.06-.19,2.11-.19,1.05.2,2.11.2,1.05.2,2.11.2,1.05-.12,2.11-.12,1.05.08,2.11.08,1.05-.35,2.11-.35,1.06.21,2.11.21,1.06-.26,2.11-.26,1.05.1,2.11.1,1.05.37,2.11.37,1.05.03,2.11.03,1.06-.1,2.11-.1,1.06-.29,2.11-.29h2.11c1.05,0,1.06.08,2.11.08s1.05-.19,2.11-.19,1.06.42,2.11.42,1.06-.12,2.11-.12,1.06-.23,2.11-.23,1.06.02,2.11.02,1.06.17,2.11.17h2.11c1.05,0,1.06.16,2.11.16s1.06-.41,2.11-.41,1.06.08,2.11.08,1.06-.09,2.11-.09,1.06.15,2.11.15,1.06.34,2.11.34,1.06-.19,2.11-.19,1.06.03,2.11.03,1.05-.2,2.11-.2,1.06-.07,2.11-.07,1.06.38,2.11.38,1.06-.34,2.11-.34,1.06.04,2.11.04,1.06.34,2.11.34,1.06-.13,2.11-.13,1.06-.29,2.11-.29,1.06.04,2.11.04,1.06.08,2.11.08,1.06-.1,2.11-.1,1.06.02,2.11.02,1.06.16,2.11.16,1.06.24,2.11.24,1.06-.13,2.12-.13,1.06.16,2.12.16,1.06-.48,2.12-.48"/>
        <path class="cls-2" d="m4.83,139.58c1.05,0,1.05-.42,2.11-.42s1.05.08,2.11.08,1.05-.12,2.11-.12,1.05-.03,2.11-.03,1.05.25,2.11.25,1.05.24,2.11.24,1.05-.2,2.11-.2h2.11c1.06,0,1.05-.1,2.11-.1s1.05.26,2.11.26,1.05-.41,2.11-.41,1.05.26,2.11.26,1.05.06,2.11.06h2.11c1.06,0,1.05-.14,2.11-.14s1.05.24,2.11.24,1.05-.25,2.11-.25,1.05.2,2.11.2,1.05-.23,2.11-.23,1.05.11,2.11.11,1.05.14,2.11.14,1.05-.12,2.11-.12,1.05.17,2.11.17,1.05-.25,2.11-.25,1.06.25,2.11.25,1.05-.2,2.11-.2,1.05-.02,2.11-.02,1.05-.12,2.11-.12,1.05.11,2.11.11,1.05-.03,2.11-.03,1.05,0,2.11,0,1.05-.13,2.11-.13,1.05-.12,2.11-.12,1.05.17,2.11.17,1.06.23,2.11.23,1.05-.03,2.11-.03,1.05-.34,2.11-.34,1.05.42,2.11.42,1.05-.25,2.11-.25,1.05.29,2.11.29,1.05-.29,2.11-.29,1.05-.13,2.11-.13,1.06-.03,2.11-.03,1.05.1,2.11.1,1.05.27,2.11.27,1.05,0,2.11,0,1.05-.02,2.11-.02,1.05-.08,2.11-.08,1.05-.02,2.11-.02,1.05-.08,2.11-.08,1.05,0,2.11,0,1.05.29,2.11.29,1.05-.26,2.11-.26,1.05.06,2.11.06,1.05-.16,2.11-.16,1.06.25,2.11.25,1.06.05,2.11.05,1.05,0,2.11,0,1.05-.19,2.11-.19,1.05.13,2.11.13,1.05-.29,2.11-.29,1.05-.03,2.11-.03,1.05.37,2.11.37,1.05-.1,2.11-.1,1.05.23,2.11.23,1.06-.32,2.11-.32,1.06.1,2.11.1,1.05-.16,2.11-.16,1.05.2,2.11.2h2.11c1.06,0,1.05.16,2.11.16s1.05-.45,2.11-.45,1.06.17,2.11.17,1.06.07,2.11.07,1.05.09,2.11.09h2.11c1.06,0,1.05-.24,2.11-.24s1.06.33,2.11.33,1.06-.21,2.11-.21,1.06.21,2.11.21,1.06-.37,2.11-.37,1.05.2,2.11.2,1.06-.05,2.11-.05,1.06-.04,2.11-.04,1.06.02,2.11.02,1.06-.11,2.11-.11,1.06.14,2.11.14,1.06.21,2.11.21,1.06.04,2.11.04,1.06-.34,2.11-.34,1.06.37,2.11.37,1.06-.25,2.11-.25,1.06.02,2.11.02,1.06.06,2.11.06,1.06-.1,2.11-.1,1.06-.21,2.11-.21,1.05-.02,2.11-.02,1.06.39,2.11.39,1.06-.38,2.11-.38,1.06.03,2.11.03,1.06.26,2.11.26,1.06-.25,2.11-.25,1.06.26,2.11.26,1.06-.29,2.11-.29,1.06.46,2.11.46,1.06-.27,2.11-.27,1.06,0,2.11,0,1.06-.24,2.11-.24,1.06.17,2.11.17,1.06.23,2.11.23,1.06-.19,2.12-.19,1.06.03,2.12.03,1.06-.19,2.12-.19"/>
        <path class="cls-2" d="m11.47,89.42c.41,1.07,0,1.1-.34,2.19s-.33,1.1-.66,2.19.04,1.42-.9,2.08c-.73.51-.86-.09-1.71-.35s-.75-.59-1.61-.85-.84-.3-1.7-.56c-.6-.18-1.3-.16-1.7-.59s-.66-1.07-.8-1.66-.23-1.26-.05-1.86h-.02c.18-.6.75-1.03,1.17-1.43s1.03-.46,1.62-.59,1.1-.31,1.7-.13c.85.26.85.25,1.71.51s.84.35,1.73.43,1.24-.22,1.56.62h0Z"/>
        <path class="cls-2" d="m37.82,47.12c-.06,1.14-1.03.72-1.78,1.58s-.5,1.08-1.25,1.95-.49,1.33-1.61,1.55c-.88.17-.77-.35-1.44-.94s-.63-.64-1.3-1.22-.5-.78-1.18-1.37c-.47-.41-1.09-.74-1.28-1.3s-.25-1.29-.14-1.88.62-1.05,1.03-1.52l-.14-.13c.41-.47,1.09-.52,1.64-.7s1.06-.19,1.66-.08,1.28,0,1.75.41c.67.59.62.64,1.3,1.23s.59.65,1.39,1.05c.91.46,1.42.47,1.38,1.36h-.03Z"/>
        <path class="cls-2" d="m78.9,19.23c-.52,1.02-1.27.29-2.3.78s-.91.75-1.95,1.24-1.02.95-2.13.69c-.87-.2-.45-.68-.83-1.49s-.25-.87-.63-1.68-.57-.72-.94-1.53c-.26-.57-.04-1.2.01-1.78s-.05-1.27.3-1.76.94-.72,1.5-.98l-.12-.25c.57-.26,1.25-.31,1.84-.26s1.08.5,1.57.84,1.14.59,1.41,1.16q.38.81.76,1.61c.38.8-.05,1.06.52,1.74.67.81,1.39.88.99,1.68h0Z"/>
        <path class="cls-2" d="m127.42,10.08c-.89.72-1.01.17-2.15.19s-1.14.25-2.29.27-1.34.47-2.25-.22c-.71-.54-.31-.83-.33-1.73s.41-.9.4-1.79-.39-.89-.41-1.78c0-.63.45-1.17.73-1.68s.53-1.18,1.04-1.49,1.18-.21,1.81-.22v-.16c.63-.01,1.17.28,1.68.56s1.11.58,1.42,1.1.16,1.15.17,1.77c.02.89.35.89.37,1.78s-.38.94-.19,1.81.68,1.03,0,1.6h.01Z"/>
        <path class="cls-2" d="m175.77,21.89c-1.1.3-1.05-.26-2.11-.71s-1.07-.42-2.12-.87-1.45-.03-2.01-1.03c-.43-.78.18-.84.53-1.66s.68-.68,1.02-1.51.34-.83.68-1.65c.24-.58.44-1.12.9-1.47s1.01-.81,1.61-.89,1.18.27,1.76.52l.13-.3c.58.24.81.97,1.16,1.43s.93.92,1.01,1.52-.31,1.17-.55,1.74c-.35.82-.08.94-.43,1.76s-.81.67-.98,1.55.24,1.32-.63,1.55l.03.02Z"/>
        <path class="cls-2" d="m215.13,52.11c-1.13-.18-.97-.45-1.75-1.28s-.5-1.1-1.29-1.93-1.38-.44-1.48-1.58c-.08-.89.43-.61,1.08-1.22s.51-.76,1.17-1.37.89-.35,1.55-.96c.46-.43.9-.87,1.47-1s1.25-.14,1.83.03,1,.64,1.43,1.09l.14-.13c.43.46.39,1.13.52,1.7s.13,1.08-.04,1.66-.29,1.13-.74,1.56c-.65.61-.5.77-1.15,1.38s-.98.3-1.5,1.03-.33,1.15-1.21,1.01h-.03Z"/>
        <path class="cls-2" d="m238.57,96.16c-.96-.62-.49-1.11-.87-2.19s-.18-1.15-.55-2.23-1.35-1.15-.98-2.24c.29-.84,1.14.02,1.98-.27s.69-.75,1.53-1.04,1.01.18,1.85-.12c.59-.2,1.16-.68,1.73-.56s.99.72,1.45,1.11.7.82.91,1.41l.22-.08c.2.59.44,1.25.33,1.83s-.7,1.02-1.1,1.48-.77.94-1.36,1.15c-.84.29-.83.32-1.68.61s-1.01-.07-1.76.42c-.85.55-.96,1.22-1.71.73h0Z"/>
      </g>
      <g>
        <path class="cls-3" d="m69.72,78.69c-.85,0-1.7.26-2.54.26s-1.7-.01-2.54-.01c-.94,0-1.9-.26-2.84-.33-.28-.02-.52.33-.74.53-.25.24-.69.31-.79.65-.05.17-.02.33-.07.5-.03.13-.09.24-.13.37-.09.3-.19.73-.12,1.04.12.6.21,1.19.32,1.79.04.21-.02.42.08.61.06.11.22.24.32.34.08.07.27.02.36.07.13.07.17.05.31.08.23.04.4.03.65.03.91,0,1.82-.12,2.73-.12s1.83.1,2.74.1c0,0,.02.14.03.14.32,0,.75.18.75.5,0,.92-.33.92-.33,1.85,0,.32-.1.59-.42.59-.82,0-1.64-.17-2.47-.17-.68,0-1.36.05-2.04.05-.32,0-.73.33-1.04.27-.1-.02-.08-.06-.19-.04-.08.02-.25-.28-.34-.26s-.1.28-.18.3c-.19.05-.36.21-.46.37s-.21.27-.26.43c-.04.12-.14.23-.19.34-.07.15-.18.25-.22.41-.02.07.16.16.14.23-.02.08.06.18.04.27-.08.37,0,.7,0,1.08,0,.4-.14.81-.14,1.21,0,.78.13,1.57.13,2.35,0,.59.09,1.18.09,1.77,0,.32-.44.52-.76.52-1.09,0-1.09-.08-2.19-.08-.32,0-.41-.13-.41-.45,0-.02-.2-.04-.2-.06,0-.46-.04-.93-.04-1.39,0-.94.07-1.88.07-2.83,0-.61.17-1.23.17-1.84s-.38-1.23-.38-1.84c0-.66.02-1.32.02-1.99s.13-1.32.13-1.99c0-.61.14-1.23.14-1.84s-.02-1.23-.02-1.84c0-.52.08-1.04.08-1.56,0-.2-.12-.48-.04-.66.03-.06-.15-.2-.13-.25.04-.09.34-.12.35-.21,0-.25-.23-.52-.19-.77.05-.27.34-.41.5-.64.14-.19.22-.46.42-.59.43-.27.99-.12,1.47-.12.7,0,1.4.06,2.09.06s1.4-.11,2.09-.11,1.37-.15,2.05-.15,1.37.02,2.05.02,1.37.31,2.05.31c.32,0,.58.07.58.39,0,.92.03.92.03,1.85,0,.32-.3.45-.61.45h.04Z"/>
        <path class="cls-3" d="m99.93,89.35c0,.57-.29,1.1-.35,1.62-.07.57,0,1.13-.15,1.63-.26.97-.78,1.73-1.33,2.42-.55.68-1.22,1.22-2.07,1.59s-1.84.46-3,.46-2.16-.08-2.99-.46c-.83-.38-1.6-.82-2.15-1.5s-1.03-1.53-1.29-2.5c-.14-.51-.17-1.07-.23-1.64-.06-.52.18-1.08.18-1.65,0-.99-.17-.99-.17-1.97s.02-.99.02-1.97-.23-.99-.23-1.97.24-.99.24-1.97-.2-.99-.2-1.98.23-.99.23-1.98c0-.92.65-1.74,1.57-1.74v-.07c.92,0,1.68.89,1.68,1.81,0,.99.11.99.11,1.98s-.01.99-.01,1.98.04.99.04,1.98-.02.99-.02,1.98.05.99.05,1.98-.39.99-.39,1.98c0,.53.16,1.09.23,1.65.07.56.38,1.05.61,1.53.23.48.6.78,1.05,1.09s.96.49,1.69.49,1.27-.11,1.72-.42,1.02-.54,1.27-1.02c.25-.47.06-1.11.13-1.69s.08-1.11.08-1.63c0-.99.03-.99.03-1.98s.29-.99.29-1.98-.03-.99-.03-1.98v-3.96c0-.99-.21-.99-.21-1.98,0-.92.87-1.75,1.79-1.75v.21c.92,0,1.65.62,1.65,1.54,0,.99.07.99.07,1.98s-.12.99-.12,1.98.18.99.18,1.98-.17.99-.17,1.98-.15,1-.1,1.99.3.98.3,1.97h0Z"/>
        <path class="cls-3" d="m128.37,97.02c-1.19,0-1.19-.03-2.39-.03-.36,0-.61-.39-.75-.72-.43-1.05-.53-1.01-.96-2.06s-.47-1.04-.9-2.09-.27-1.12-.7-2.17-.5-1.02-.93-2.08-.53-1.01-.96-2.07c-.37-.9-1.67-.67-1.67.31s-.17.98-.17,1.97.03.98.03,1.97v1.97c0,.99.07.99.07,1.97s.08.99.08,1.97c0,.49-.39.68-.88.68-.78,0-.78.28-1.56.28-.49,0-.97-.47-.97-.96,0-1.07.14-1.07.14-2.14s-.18-1.07-.18-2.14.31-1.07.31-2.14-.15-1.07-.15-2.14,0-1.07,0-2.14-.22-1.07-.22-2.14.32-1.07.32-2.14-.08-1.07-.08-2.15v-2.15c0-.49.32-.72.81-.72,1.35,0,1.35-.07,2.71-.07.36,0,.67.13.8.47.4.97.57.91.96,1.88s.19,1.06.59,2.04.36.99.76,1.97.61.89,1.01,1.87.38.98.78,1.96c.37.9,1.68.68,1.68-.3,0-1.13.11-1.13.11-2.27s-.39-1.14-.39-2.27.06-1.14.06-2.27-.03-1.14-.03-2.27c0-.49.58-.85,1.07-.85.78,0,.78-.1,1.56-.1.49,0,.87.47.87.96,0,1.07.07,1.07.07,2.14s-.13,1.07-.13,2.14.1,1.07.1,2.14-.21,1.07-.21,2.14,0,1.07,0,2.14.11,1.07.11,2.14-.1,1.07-.1,2.14.29,1.07.29,2.15.07,1.07.07,2.15c0,.49-.59,1.06-1.08,1.06l.05-.03Z"/>
        <path class="cls-3" d="m160.16,86.32c0,.69-.04,1.36-.11,2.02s-.23,1.33-.38,1.98c-.14.62-.23,1.22-.46,1.76-.24.58-.45,1.16-.78,1.66-.33.48-.78.85-1.2,1.23s-.84.78-1.35,1.07c-.54.3-1.14.59-1.8.73-.59.13-1.25-.08-1.94-.08-1.09,0-1.09-.02-2.17-.02s-1.09.22-2.17.22c-.69,0-1.43-.2-1.89-.65s-.6-1.2-.6-1.89v-2.01c0-1,.05-1,.05-2s-.24-1-.24-2.01.23-1,.23-2.01-.02-1-.02-2.01-.06-1-.06-2.01-.11-1.01-.11-2.01-.03-1.01-.03-2.01c0-.69.42-1.33.87-1.78s1.1-.83,1.78-.83c1.09,0,1.09.32,2.17.32h2.17c.68,0,1.29-.03,1.88.1.65.14,1.27.25,1.81.55.51.29,1.07.52,1.49.9s.85.82,1.18,1.3c.33.49.51,1.12.75,1.69.23.54.21,1.18.36,1.79.16.65.6,1.25.68,1.93s-.12,1.35-.12,2.04v.03Zm-3.21,0c0-.69-.03-1.34-.1-1.94-.08-.69-.15-1.35-.32-1.92-.2-.67-.55-1.23-.87-1.73-.41-.64-.96-1.05-1.55-1.37s-1.23-.58-1.99-.58c-.5,0-.5.08-1.01.08-.69,0-1.23.31-1.68.76s-.97.99-.97,1.68c0,1.01-.02,1.01-.02,2.01s.22,1.01.22,2.01.13,1.01.13,2.01-.18,1.01-.18,2.01v2.01c0,.69.25,1.35.7,1.8s1.11.51,1.8.51c.5,0,.5.23,1.01.23.76,0,1.45-.19,2.04-.52s1.04-.86,1.45-1.51c.32-.51.47-1.11.67-1.78.17-.57.26-1.18.34-1.87.07-.6.33-1.22.33-1.91v.02Z"/>
        <path class="cls-3" d="m188.41,78.72c-.36,0-.76.25-.92.57-.43.87-.46.86-.89,1.73s-.27.95-.7,1.82-.33.92-.76,1.8-.58.8-1.01,1.68-.35.91-.78,1.79c-.06.13.02.23.02.37,0,1.11-.32,1.11-.32,2.22s.25,1.11.25,2.22c0,.52.3,1.11.81,1.11.75,0,.75-.2,1.5-.2.52,0,.97.45.97.96,0,.57.11.57.11,1.13,0,.52-.57,1.01-1.08,1.01-1.02,0-1.02-.09-2.05-.09s-1.02.07-2.05.07-1.03.01-2.05.01-1.03-.16-2.05-.16c-.52,0-.88-.32-.88-.84,0-.57.14-.57.14-1.13,0-.52.23-.82.74-.82.74,0,.74.04,1.49.04.52,0,.96-.57.96-1.09,0-1.11-.14-1.11-.14-2.22s.09-1.11.09-2.22c0-.14.09-.33.03-.46-.43-.87-.66-.76-1.09-1.63s-.41-.88-.84-1.75-.39-.89-.82-1.77-.28-.95-.71-1.82-.66-.76-1.09-1.64c-.16-.32-.33-.58-.68-.58-.52,0-.91-.44-.91-.95,0-.57.08-.57.08-1.13,0-.52.31-.82.82-.82,1.19,0,1.19-.25,2.38-.25s1.19.13,2.38.13c.52,0,.8.42.8.94,0,.45.15.9.13,1.35,0,.31-.16.49-.4.66-.16.11-.34.12-.44.3-.08.15-.23.32-.22.49,0,.13.21.25.22.38,0,.14-.15.3-.11.43s.18.23.24.35c.09.2.24.36.31.57.21.59.55,1.14.8,1.72.33.75,1.36.77,1.68.01.31-.74.78-1.43,1.04-2.18.05-.16.04-.28.06-.44.02-.14.06-.21.05-.36,0-.13-.15-.25-.15-.38,0-.23.12-.52,0-.71-.07-.1-.38.04-.48-.04s.07-.41,0-.51c-.13-.19-.39-.36-.39-.59,0-.35.3-.7.3-1.06,0-.52.31-.75.83-.75,1.19,0,1.19-.21,2.38-.21s1.19-.07,2.38-.07c.52,0,1.02.51,1.02,1.03,0,.57-.12.57-.12,1.13,0,.52-.39.84-.9.84h.02Z"/>
      </g>
      <g>
        <path class="cls-3" d="m24.7,176.64c0,.91-.14,1.79-.44,2.48-.32.77-1.03,1.29-1.71,1.8-.49.37-1.05.65-1.71.88-.57.2-1.2.26-1.89.35-.6.08-1.23.22-1.92.22h-2.16c-1.08,0-1.08.08-2.16.08-.66,0-1.38-.17-1.81-.6s-.68-1.16-.68-1.81c0-1.02.06-1.02.06-2.03s-.12-1.01-.12-2.03.02-1.02.02-2.03.07-1.02.07-2.03.06-1.02.06-2.03-.06-1.02-.06-2.04.14-1.02.14-2.04-.07-1.02-.07-2.04c0-.66.28-1.26.71-1.69s1.03-.5,1.69-.5c.99,0,.99-.09,1.98-.09s.99-.14,1.98-.14c.88,0,1.77-.04,2.62.11.85.14,1.68.4,2.35.8.67.4,1.11,1.12,1.53,1.84s.66,1.64.66,2.78c0,1.06-.31,2.03-.86,2.91-.05.09-.07.2-.13.28-.35.49-.52,1.06-.43,1.61s.51.94.94,1.35c.11.1,0,.4.1.51.36.41.53.88.69,1.48.14.5.56,1.02.56,1.65v-.03Zm-4.37-9.36c0-.62-.11-1.02-.34-1.41s-.34-.83-.71-1.04c-.37-.21-.79-.36-1.24-.42s-.92-.18-1.38-.18c-.31,0-.31.1-.62.1-.66,0-1.29.27-1.72.7s-.63,1.06-.63,1.72c0,.54.15.54.15,1.07,0,.66.17,1.17.6,1.6s.95.72,1.6.72c.31,0,.31-.12.62-.12.46,0,.9-.02,1.35-.08.45-.07.83-.12,1.2-.33.36-.21.68-.44.91-.83s.21-.88.21-1.49h0Zm.73,9.01c0-1.05-.3-1.68-1.04-2.18-.41-.28-.78-.68-1.36-.81-.48-.1-1.02-.16-1.62-.16-.49,0-.49-.09-.99-.09-.66,0-1.28.38-1.71.81s-.72,1.06-.72,1.71c0,.72.08.72.08,1.44,0,.66.37,1.13.8,1.56s.9.71,1.56.71c.49,0,.49.06.99.06.6,0,1.09-.17,1.57-.27.58-.13,1.02-.29,1.42-.57.74-.51,1.03-1.16,1.03-2.21h0Z"/>
        <path class="cls-3" d="m63.83,181.67c-.26-.86-.11-.9-.37-1.76s-.24-.86-.5-1.72c-.14-.47-.57-.96-1.06-.96-.88,0-.88.07-1.77.07s-.89.12-1.77.12-.89.04-1.77.04c-.49,0-1.08.22-1.22.69-.25.86-.23.86-.48,1.72s-.14.89-.4,1.74c-.14.47-.55.82-1.04.82-.58,0-.58-.21-1.16-.21-.75,0-1.26-.52-1.04-1.24.33-1.04.34-1.04.67-2.08s.24-1.07.57-2.12.26-1.06.59-2.1.54-.98.87-2.02.2-1.09.52-2.13.44-1.01.77-2.06.1-1.12.43-2.16.3-1.06.63-2.1.45-1.01.78-2.06c.14-.46.61-.74,1.09-.74,1.1,0,1.1.03,2.2.03.49,0,1.03.22,1.18.68.33,1.04.37,1.03.7,2.07s.31,1.05.64,2.09.23,1.07.56,2.11.25,1.07.58,2.11.27,1.06.6,2.11.43,1.01.76,2.06.34,1.04.66,2.09.18,1.09.51,2.14.48,1,.8,2.05c.22.72-.36,1.33-1.11,1.33-.58,0-.58.28-1.16.28-.49,0-1.1-.42-1.24-.89h-.02Zm-5.68-7.41c1.1,0,1.1.16,2.21.16.74,0,1.27-.69,1.06-1.4-.27-.92-.11-.97-.38-1.89s-.35-.9-.62-1.82c-.31-1.06-1.88-1.03-2.2.03-.28.92-.24.93-.52,1.85s-.49.86-.77,1.78c-.21.71.48,1.3,1.22,1.3h0Z"/>
        <path class="cls-3" d="m107.31,182.24c-1.22,0-1.22.27-2.44.27-.35,0-.66-.32-.79-.64-.44-1.07-.52-1.03-.96-2.1s-.16-1.18-.6-2.25-.81-.92-1.25-1.99-.27-1.14-.71-2.21-.34-1.11-.78-2.19c-.35-.87-1.83-.58-1.83.36,0,1.01.31,1.01.31,2.01s-.02,1.01-.02,2.01-.36,1.01-.36,2.01.2,1.01.2,2.02.17,1.01.17,2.02c0,.47-.57.79-1.04.79-.82,0-.82-.03-1.63-.03-.47,0-1.04-.3-1.04-.77,0-1.07.36-1.07.36-2.15v-2.15c0-1.08-.04-1.07-.04-2.14s-.27-1.07-.27-2.15.04-1.07.04-2.15.24-1.07.24-2.15-.28-1.07-.28-2.15.29-1.08.29-2.15-.2-1.08-.2-2.15c0-.47.42-.9.89-.9,1.38,0,1.38.07,2.77.07.35,0,.55.23.68.56.41.99.64.9,1.04,1.89s.38,1.01.78,2,.46.97.86,1.97.29,1.04.7,2.04.39,1,.8,2c.35.87,1.76.62,1.76-.32,0-1.16-.24-1.16-.24-2.32s.23-1.16.23-2.32.02-1.16.02-2.33-.29-1.16-.29-2.33c0-.47.53-.98,1-.98.82,0,.82.19,1.63.19.47,0,.75.31.75.78,0,1.07.12,1.07.12,2.15s-.14,1.07-.14,2.15-.03,1.07-.03,2.14,0,1.07,0,2.15-.04,1.07-.04,2.15.23,1.07.23,2.15.1,1.07.1,2.15-.22,1.08-.22,2.15-.11,1.08-.11,2.15c0,.47-.2.69-.67.69h0Z"/>
        <path class="cls-3" d="m150.48,174.38c0,.78-.22,1.5-.31,2.17-.11.77-.38,1.43-.61,2.07-.27.72-.52,1.36-.95,1.91-.41.53-.8,1.06-1.36,1.4s-1.16.57-1.83.72c-.59.13-1.26.03-1.96.03-.9,0-1.67-.21-2.43-.43-.82-.24-1.69-.35-2.35-.86-.46-.35-.78-.87-1.14-1.35-.34-.45-.5-1.01-.74-1.58-.37-.85-.04-1.58.83-1.91l-.14-.37c.79-.3,1.85.19,2.2.95.28.6.49,1.18.91,1.6.7.7,1.67,1.03,2.86,1.03.72,0,1.33-.11,1.79-.41.46-.3.96-.64,1.22-1.13s.46-1.12.56-1.77c.1-.65-.11-1.36-.11-2.07,0-1.14-.08-1.14-.08-2.28s.1-1.14.1-2.28.24-1.14.24-2.28-.15-1.14-.15-2.28-.04-1.14-.04-2.28c0-.89.75-1.67,1.64-1.67.06,0,.06-.1.12-.1.89,0,1.66.88,1.66,1.77,0,1.14.07,1.14.07,2.28s-.3,1.14-.3,2.28.26,1.14.26,2.28.05,1.14.09,2.28-.05,1.15-.05,2.29h0Z"/>
        <path class="cls-3" d="m177.92,171.88c0-.7-.02-1.37.05-2.04s0-1.39.17-2.06c.15-.63.27-1.27.49-1.83.24-.6.76-1.04,1.08-1.56.32-.5.6-1.01,1.02-1.41s.97-.6,1.48-.91c.54-.32,1.07-.62,1.73-.77.59-.14,1.22-.1,1.91-.1s1.3.02,1.89.16c.66.15,1.34.16,1.88.48.51.3.97.7,1.39,1.1s.7.93,1.03,1.43c.33.51.67,1.04.91,1.64.22.56.53,1.14.67,1.77s.24,1.36.31,2.05.2,1.37.2,2.06-.3,1.37-.37,2.04-.08,1.38-.23,2.04c-.14.63-.45,1.19-.67,1.76-.24.6-.35,1.24-.68,1.77-.32.51-.77.91-1.18,1.32s-.83.84-1.35,1.15c-.54.32-1.17.57-1.84.72-.6.14-1.26.21-1.96.21s-1.39.02-1.98-.11c-.67-.15-1.33-.41-1.87-.73-.51-.3-.82-.89-1.23-1.3s-.87-.78-1.19-1.29c-.33-.52-.6-1.09-.83-1.69-.22-.57-.43-1.16-.57-1.8-.14-.66-.32-1.33-.39-2.02s.15-1.36.15-2.06l-.02-.02Zm3.06,0c0,.95.13,1.91.28,2.85.14.95.56,1.74.91,2.49s.84,1.26,1.45,1.72,1.28.92,2.23.92,1.72-.33,2.32-.79c.61-.46,1.24-.99,1.59-1.74.35-.75.52-1.65.67-2.6.15-.95.33-1.91.33-2.85s-.12-1.91-.27-2.85c-.14-.94-.63-1.71-.98-2.47-.35-.75-.77-1.35-1.39-1.81-.62-.46-1.35-.79-2.27-.79-.78,0-1.46.23-2.05.59s-.95.92-1.35,1.61c-.31.53-.57,1.11-.76,1.8-.16.59-.19,1.24-.26,1.95-.07.62-.45,1.26-.45,1.97Z"/>
        <path class="cls-3" d="m235.18,176.63c0,.97-.51,1.76-.83,2.52-.33.76-.47,1.61-1.04,2.14-.56.53-1.41.66-2.19.94s-1.56.6-2.44.6c-.99,0-1.81-.4-2.6-.76-.28-.12-.78.03-1.01-.17-.07-.07-.07-.21-.14-.28-.08-.08-.19-.12-.28-.19-.12-.1-.24-.18-.4-.19-.21-.02-.34-.09-.45.03s-.16.35-.24.5c-.22.4-.67.74-1.11.74-.83,0-1.65-.77-1.65-1.6,0-.97.14-.97.14-1.94s-.04-.97-.04-1.94c0-.83.73-1.7,1.56-1.7.09,0,.09.07.18.07.68,0,1.19.62,1.35,1.29.06.25.3.42.4.64.24.53.63.85,1.03,1.21s.73.77,1.26.96,1.08.49,1.67.49c1,0,1.92-.28,2.53-.74s.62-1.35.62-2.36c0-.53-.05-.91-.24-1.28-.19-.38-.34-.75-.69-1.05s-.69-.73-1.19-.95c-.51-.22-1.11-.4-1.76-.65-.76-.26-1.56-.46-2.32-.78-.76-.32-1.55-.58-2.15-1.06-.6-.47-.88-1.24-1.26-1.93s-.45-1.51-.45-2.56c0-.92-.12-1.77.22-2.46s.89-1.21,1.46-1.68c.56-.47,1.25-.69,2-.93.75-.24,1.48-.66,2.32-.66.97,0,1.89.18,2.58.59.18.11.24.37.39.53.14.15.34.16.53.24.05.02.1.03.15.03.07,0,.17-.04.25-.05.16,0,.25,0,.37-.12.06-.06.2-.04.25-.1.27-.35.66-.69,1.09-.69.83,0,1.29.73,1.29,1.56,0,.89.07.89.07,1.77s.22.89.22,1.77c0,.83-.76,1.4-1.59,1.4-.08,0-.08.19-.16.19-.7,0-1.36-.58-1.5-1.27s-.42-1.24-.85-1.7c-.65-.69-1.49-1.15-2.59-1.15-.97,0-1.76.32-2.4.78-.64.45-1.04,1.07-1.04,1.88,0,.42.16.77.32,1.07.17.3.32.68.63.92.32.24.74.49,1.23.7.48.21,1.09.33,1.73.58.8.28,1.62.51,2.41.87.78.36,1.54.75,2.17,1.26.62.52.94,1.3,1.33,2.04.4.74.89,1.57.89,2.64h-.03Z"/>
      </g>
    </g>
  </g>
</svg>