<?xml version="1.0" encoding="UTF-8"?>
<svg id="Layer_2" data-name="Layer 2" xmlns="http://www.w3.org/2000/svg" viewBox="0 0 334.48 246.95">
  <defs>
    <style>
      .cls-1 {
        fill: none;
        stroke: #231f20;
        stroke-miterlimit: 10;
        stroke-width: 1.5px;
      }

      .cls-2 {
        fill: #a9704e;
        stroke-width: 0px;
      }
    </style>
  </defs>
  <g id="Layer_1-2" data-name="Layer 1">
    <g>
      <line class="cls-1" x1="6.89" y1="201.74" x2="6.78" y2="201.74"/>
      <path class="cls-2" d="m333.82,120.06c-.46-.79-1.26-1.3-2.01-1.75s-1.56-1.09-2.45-1.17-1.74.49-2.59.79c-.68.23-1.46.16-2.14.39-.88.3-2.35,1.57-3.27,1.37-.98-.21-1.01-1.33-1.32-2.12-.4-1.04-.8-2.09-1.21-3.13s-.56-2.19-1-3.22-1.45-1.81-1.91-2.82c-.37-.81-.49-1.74-.87-2.55s-.82-1.59-1.21-2.39-.57-1.72-.98-2.51-.96-1.52-1.38-2.31-.98-1.5-1.41-2.28c-.47-.84-.93-1.68-1.41-2.52s-.72-1.81-1.22-2.63-1.42-1.38-1.93-2.2-.52-1.95-1.05-2.76-1.07-1.61-1.61-2.4-1.26-1.47-1.81-2.26-1.01-1.64-1.58-2.42-1.25-1.47-1.83-2.24-1.13-1.56-1.73-2.32c-.54-.68-1.25-1.22-1.8-1.9-.37-.46-1.11-1.28-1.14-1.91,0-.2.21-.33.3-.51.41-.8,1.1-1.45,1.86-2.12s1.36-1.49,2.01-2.09c.89-.83,1.57-1.8,1.82-2.99.2-.95.49-1.96.24-2.84s-.99-1.63-1.66-2.32c-.73-.75-1.56-1.44-2.51-1.67s-2.03-.01-3.01.25-1.72.85-2.48,1.55c-.62.58-1.16,1.25-1.78,1.82s-1.44.94-2.12,1.45c-.16.12-.32.31-.51.36-.97.2-2.23-1.4-2.81-1.97-.9-.9-1.85-1.74-2.78-2.61-.63-.6-.9-1.57-1.54-2.16s-1.49-.94-2.14-1.52-1.1-1.38-1.76-1.94c-.67-.58-1.57-.89-2.25-1.46s-1.4-1.08-2.09-1.64-1.11-1.45-1.81-1.99-1.64-.78-2.35-1.31-1.49-.96-2.21-1.48-1.43-1.04-2.15-1.55-1.43-1.05-2.16-1.55-1.49-.97-2.23-1.45-1.44-1.03-2.2-1.51-1.59-.8-2.34-1.27-1.34-1.21-2.11-1.66c-.95-.56-2.08-.82-3.04-1.36s-1.81-1.3-2.78-1.83-1.82-1.3-2.81-1.8c-.7-.35-2.25-.33-2.48-1.18-.25-.95.92-2.79,1.29-3.66.29-.69.68-1.35.97-2.04.35-.83.34-1.66.32-2.53s-.08-1.71-.48-2.49-.9-1.45-1.66-1.97-1.43-1.16-2.23-1.3c-.85-.14-1.72.31-2.52.54s-1.48.66-2.11,1.22-1.53.98-1.87,1.78c-.31.74-.59,1.48-.91,2.22-.36.84-.49,2.9-1.3,3.41-.65.4-1.62-.14-2.23-.37-.85-.33-1.7-.66-2.56-.98s-1.73-.59-2.59-.89-1.73-.58-2.59-.87-1.6-.98-2.48-1.25-1.82-.29-2.7-.55-1.74-.56-2.62-.8-1.87-.08-2.75-.3-1.67-.85-2.55-1.06-1.81-.27-2.7-.46-1.73-.67-2.62-.85-1.87.01-2.77-.16-1.74-.69-2.64-.84-1.8-.36-2.71-.5-1.82-.23-2.73-.35-1.86.13-2.77.02c-1.14-.14-2.24-.71-3.38-.82s-2.31-.03-3.46-.11-2.3-.17-3.45-.23c-.72-.04-2.29.22-2.84-.37-.1-.11-.34-.14-.38-.28-.36-1.13-.36-2.57-.38-3.74-.01-.76-.02-1.51-.03-2.27-.01-.76.08-1.5-.21-2.17s-.5-1.52-1.05-2.05c-.54-.52-1.3-.95-1.99-1.21s-1.53.02-2.27.03c-1.03.02-2.08,0-2.91.49s-1.4,1.42-1.89,2.29-.96,1.78-.94,2.81c.01.73.32,1.45.33,2.18.02,1.07.23,2.75-.24,3.74-.36.75-1.52.53-2.2.56-.92.04-1.85-.15-2.77-.09s-1.82.42-2.73.49-1.83.2-2.74.29-1.79.48-2.71.59-1.87-.16-2.78-.04-1.81.36-2.71.5-1.85.09-2.76.24-1.77.56-2.67.73-1.77.52-2.67.7-1.79.4-2.69.6-1.79.34-2.68.55-1.89-.04-2.78.19-1.72.64-2.61.88-1.71.66-2.59.91-1.81.33-2.68.6c-1.09.34-2.19.65-3.28,1.01s-2.09.95-3.16,1.33-2.3.37-3.37.78c-.74.28-1.83,1.48-2.62,1.21-.98-.34-1.15-2.62-1.56-3.5-.34-.72-1.02-1.29-1.36-2.01-.44-.93-1.04-1.75-1.82-2.34s-1.76-1.01-2.75-1.15-1.88.23-2.84.65c-.88.39-1.81.68-2.38,1.42s-1.16,1.61-1.33,2.56c-.21,1.19.59,2.35,1.11,3.45.32.7.23,1.59.55,2.29.38.82,1.81,2.46,1.49,3.37-.28.78-1.77,1-2.44,1.35-.98.5-2,.95-2.97,1.47s-1.77,1.36-2.74,1.9-1.83,1.25-2.78,1.81c-.76.45-1.81.43-2.57.89s-1.38,1.13-2.13,1.61-1.5.95-2.24,1.43-1.52.92-2.25,1.41-1.28,1.27-2,1.78-1.56.86-2.27,1.38-1.52.92-2.22,1.45-1.15,1.4-1.85,1.94-1.43,1.04-2.12,1.59-1.59.85-2.27,1.41-1.48,1-2.15,1.57c-.64.55-1.03,1.4-1.66,1.96s-1.46.91-2.09,1.48-1.24,1.16-1.85,1.75c-.92.87-1.67,1.92-2.57,2.81-.59.58-1.45,2.15-2.29,2.32-1,.2-2.29-1.97-3-2.58-.62-.54-1.48-.81-2.1-1.35-.68-.59-1.29-1.44-2.12-1.68s-1.85-.01-2.72.13-1.88.23-2.61.79-.93,1.51-1.3,2.23c-.39.76-.6,1.54-.62,2.37s-.2,1.77.14,2.54,1.11,1.26,1.77,1.83c.63.55,1.35.98,1.98,1.53.72.63,2.32,1.93,2.27,2.99-.03.65-.53,1.21-.91,1.68-.55.68-1.29,1.21-1.84,1.9-.6.76-1.18,1.52-1.76,2.29s-1.12,1.57-1.69,2.34-1.12,1.57-1.67,2.35-.79,1.8-1.33,2.59-1.19,1.51-1.72,2.32-1.28,1.47-1.79,2.28-1.1,1.59-1.6,2.41-.71,1.82-1.2,2.65-1.05,1.62-1.52,2.46c-.42.75-.65,1.61-1.06,2.37s-1.33,1.25-1.73,2.02-.33,1.77-.72,2.55-.98,1.44-1.36,2.22-.43,1.71-.79,2.49c-.45.98-1.44,1.72-1.87,2.72s-.61,2.09-1.02,3.09-.99,1.94-1.38,2.95c-.31.79-.54,1.88-1.23,2.43-.95.76-2.75.25-3.75-.06-.8-.25-1.58-.59-2.38-.84-1.07-.33-2.16-.68-3.17-.4s-2.04.94-2.77,1.74-.88,1.87-1.08,2.99c-.17.95.02,1.76.33,2.62s.68,1.64,1.36,2.28,1.27,1.52,2.19,1.8c.74.22,1.55.19,2.29.42.85.26,3.25.36,3.68,1.21.28.54-.28,1.44-.43,1.98-.23.83-.67,1.6-.88,2.44s-.28,1.71-.48,2.55-.16,1.73-.35,2.57-.8,1.55-.97,2.37-.24,1.67-.4,2.49-.39,1.64-.53,2.47-.05,1.7-.18,2.53c-.14.86-.2,1.73-.32,2.6s-.06,1.75-.17,2.62-.65,1.68-.75,2.55-.08,1.75-.16,2.62.03,1.76-.04,2.62c-.06.84.02,1.69-.03,2.54s-.44,1.67-.48,2.52-.26,1.69-.29,2.53.36,1.7.34,2.55-.2,1.69-.2,2.54c0,.16.04.16.04.32,0,.87-.24,1.74-.23,2.61s-.03,1.74,0,2.61.37,1.72.41,2.59.27,1.72.32,2.59-.31,1.76-.24,2.63c.08.99.22,1.97.32,2.96s.04,1.99.15,2.98.34,1.98.49,2.98.6,1.94.72,2.93c.06.5-.15,1.08.04,1.54.04.09.46-.03.52.05.12.16.1.61.29.65.44.1,1.18-.18,1.67-.18.44,0,.88.22,1.33.22.54,0,1.08-.17,1.61-.17.63,0,1.26.18,1.89.18.72,0,1.44-.26,2.16-.26.81,0,1.62.1,2.42.1.89,0,1.78-.44,2.68-.44.97,0,1.95.21,2.92.21,1.05,0,2.11.29,3.16.29,1.13,0,2.26.04,3.39.04,1.2,0,2.4-.25,3.6-.25,1.27,0,2.54-.09,3.82-.09,1.34,0,2.68.09,4.02.09.7,0,1.4.03,2.11.03s1.4,0,2.11,0,1.47-.19,2.2-.19,1.47-.08,2.2-.08,1.52.35,2.29.35,1.52.09,2.29.09,1.58-.34,2.37-.34,1.58.37,2.37.37,1.63-.33,2.45-.33,1.63-.04,2.45-.04,1.68.07,2.52.07,1.68.26,2.52.26,1.73,0,2.6,0,1.73.03,2.6.03,1.77-.36,2.66-.36,1.77.33,2.66.33,1.82-.44,2.72-.44,1.82.12,2.72.12,1.86.43,2.78.43,1.86,0,2.78,0,1.89,0,2.84,0,1.89-.58,2.84-.58,1.92.44,2.89.44,1.92-.43,2.89-.43,1.95.34,2.93.34,1.95.02,2.93.02,1.98-.13,2.97-.13,1.98.24,2.97.24,2.01.13,3.01.13,2.01-.45,3.01-.45,2.03.02,3.04.02,2.03-.24,3.04-.24,2.05.15,3.07.15,2.05.29,3.07.29,2.06.03,3.09.03,2.06.14,3.09.14,2.08-.15,3.11-.15,2.08.19,3.11.19,2.09-.25,3.13-.25,2.09-.29,3.13-.29,2.09.42,3.14.42,2.09-.17,3.14-.17,2.1.05,3.15.05,2.1.19,3.15.19,2.1-.44,3.15-.44,2.1.26,3.15.26,2.1.04,3.15.04,2.1.2,3.15.2,2.09-.05,3.14-.05,2.09-.59,3.14-.59,2.09.47,3.13.47,2.09-.1,3.13-.1,2.08.24,3.12.24,2.08-.35,3.12-.35,2.07.38,3.1.38,2.07-.24,3.1-.24,2.05,0,3.08,0,2.05.16,3.08.16,2.03,0,3.05,0,2.03-.27,3.05-.27,2.01-.05,3.02-.05,2.01-.17,3.02-.17,1.99.37,2.98.37,1.99.19,2.98.19,1.96-.31,2.94-.31,1.96-.16,2.94-.16,1.93.1,2.9.1,1.93.08,2.9.08,1.9.19,2.85.19,1.9-.36,2.85-.36,1.86.34,2.79.34,1.86-.37,2.79-.37,1.82-.14,2.74-.14,1.82.06,2.74.06,1.78.42,2.68.42,1.78-.12,2.68-.12,1.74-.24,2.61-.24,1.74,0,2.61,0,1.69.43,2.54.43,1.69.09,2.54.09,1.64-.29,2.46-.29,1.64-.22,2.46-.22,1.59.05,2.39.05,1.59.3,2.39.3,1.54-.27,2.3-.27,1.54.24,2.3.24,1.48-.15,2.22-.15,1.48-.14,2.22-.14,1.42-.05,2.12-.05,1.42-.08,2.12-.08c1.35,0,2.7.29,4.06.29s2.57-.02,3.86-.02c1.22,0,2.43-.01,3.65-.01,1.14,0,2.29.24,3.43.24,1.07,0,2.14-.02,3.21-.02.99,0,1.98-.3,2.97-.3.91,0,1.82.25,2.73.25.83,0,1.65-.44,2.48-.44.74,0,1.48.57,2.22.57.65,0,1.3.05,1.95.05.56,0,1.11-.45,1.67-.45.46,0,.92.08,1.39.08.94,0,2.13.51,2.72-.46.47-.77.36-1.88.48-2.75.17-1.2-.06-2.45.09-3.65.1-.77.65-1.49.73-2.26s.06-1.56.13-2.34.22-1.55.28-2.32c.07-.86-.08-1.75-.02-2.61s.21-1.73.25-2.6.28-1.73.31-2.6-.05-1.74-.03-2.61-.17-1.74-.17-2.61c0-.16,0-.16,0-.32,0-.85.05-1.7.04-2.54s-.33-1.69-.36-2.53-.03-1.69-.06-2.54-.07-1.69-.12-2.54-.03-1.7-.09-2.54c-.07-.87-.27-1.72-.35-2.6s.38-1.79.28-2.66-.51-1.7-.62-2.57-.41-1.71-.53-2.57-.32-1.72-.46-2.58c-.13-.82-.1-1.65-.25-2.47s-.09-1.66-.24-2.47-.36-1.61-.52-2.42-.62-1.56-.8-2.36-.22-1.66-.42-2.47-.32-1.64-.53-2.45c-.15-.57-.42-1.33-.64-2.08s-.27-1.47-.08-2.07c.36-1.15,2.12-1.73,3.11-2.08.83-.28,1.71-.41,2.53-.69.83-.28,1.49-.73,2.07-1.3s1.12-1.24,1.41-2.02.39-1.61.31-2.46c-.08-.8-.13-1.7-.58-2.47Zm-42.81-60.68c.44-.41.84-.91,1.42-1.07,1.41-.38,2.57.29,3.5,1.29.93,1,1.63,2.25,1.16,3.62-.2.57-.84.89-1.28,1.3-.51.47-.73,1.25-1.24,1.73-.75.7-1.74,1.65-2.69,2.07-1.07.47-1.74-.75-2.37-1.42-.37-.39-.79-1.16-1.35-1.75s-1.6-1.08-1.58-1.69c.03-1.02,1.92-2,2.61-2.65.56-.53,1.27-.91,1.83-1.43Zm-57.94-40.34c.24-.56.4-1.18.88-1.55,1.13-.89,2.45-.74,3.69-.21,1.17.5,2.29,1.22,2.5,2.54.11.7-.34,1.38-.62,2.03-.28.65-.17,1.46-.44,2.11-.39.92-.9,2.39-1.66,3.06-.88.77-2.08-.35-2.95-.57-.47-.2-1.22-.73-1.99-1.07-.82-.37-1.96-.6-1.92-1.28.07-1.04,1.12-2.26,1.52-3.21.27-.64.73-1.2,1-1.84Zm-138.43.95c.16-1.32.77-2.46,1.93-2.99.5-.23,1.04.01,1.56.01.7,0,1.48-.26,2.07.11s.82,1.1,1.13,1.76c.31.67,1,1.17,1.32,1.84.4.85,1.41,2.69,1.09,3.64-.18.52-.9.94-1.67,1.28s-1.67.3-2.11.5c-.75.35-1.92,1.72-2.75,1.21-.76-.47-1.09-2.57-1.46-3.37-.3-.65-.65-1.28-.95-1.92s-.22-1.37-.14-2.07Zm-56.63,40.03c.72-1.14,1.78-1.85,2.98-1.85.86,0,1.5.58,2.2,1.18.62.53,1.55.7,2.17,1.24s2.31,1.8,2.17,2.76c-.09.61-.2,1.43-.74,2.02s-1.28.97-1.66,1.4c-.42.48-.85,1.18-1.47,1.46-.88.4-1.17-.56-1.78-1.08-1-.86-2.39-1.27-3.38-2.14-.69-.6-.97-1.65-1.14-2.51s.15-1.7.65-2.49ZM2.2,122.6c.13-.94.4-1.77,1.04-2.33s1.55-.56,2.45-.56c.36,0,.76-.43,1.12-.32.79.24,1.48.79,2.27,1.03,1.04.32,3.25.26,3.47,1.56.11.64-.26,1.41-.47,2.12s-.51,1.38-.69,1.98c-.2.65-.38,1.38-1.09,1.68-.91.38-2.51.12-3.39-.15-.74-.23-1.4-.72-2.14-.95-.87-.27-1.68-.81-2.17-1.52s-.51-1.63-.39-2.55ZM167.18,2.17s.04-.2.06-.2c1.25,0,2.14.84,2.85,1.95.38.59.98,1.12.99,1.82.01.83-.21,1.76-.16,2.68s.44,1.91.21,2.72c-.08.3-.49.55-.76.7-.61.33-1.63.14-2.29.15-.45,0-1.36-.18-2.24-.17s-2.06.38-2.35-.1c-.48-.79.09-2.92.08-3.83-.01-.72-.08-1.43-.09-2.15-.02-1.01.59-1.82,1.24-2.5s1.45-1.06,2.46-1.08ZM61.99,53.35c.71-.61,1.29-1.37,2-1.96s1.67-.91,2.39-1.49,1.16-1.54,1.9-2.12,1.68-.88,2.42-1.44,1.26-1.45,2.01-1.99,1.65-.91,2.41-1.44,1.54-1.05,2.32-1.57,1.73-.76,2.51-1.27,1.25-1.52,2.04-2.01,1.74-.74,2.54-1.22,1.58-.99,2.39-1.46,1.75-.7,2.57-1.15,1.56-1.03,2.39-1.46,1.59-1,2.42-1.42,1.68-.82,2.52-1.23,1.81-.54,2.65-.94,1.49-1.23,2.35-1.61,1.95-.19,2.81-.56,1.71-.73,2.58-1.07,1.66-.88,2.53-1.21,1.79-.54,2.67-.86,1.71-.76,2.59-1.06,1.78-.55,2.67-.84,1.71-.78,2.6-1.05,1.82-.42,2.72-.68,1.84-.36,2.74-.6,1.81-.44,2.72-.67,1.75-.72,2.66-.93,1.83-.37,2.74-.57,1.89-.04,2.81-.22,1.78-.62,2.7-.78,1.87-.1,2.8-.25,1.81-.5,2.74-.63,1.83-.42,2.76-.53,1.85-.32,2.77-.42,1.89.09,2.82,0,1.86-.22,2.79-.28,1.86-.2,2.79-.25,1.86-.15,2.8-.18,1.88.47,2.81.45,1.86-.33,2.79-.33,1.86.31,2.8.33,1.87-.3,2.81-.27,1.87.01,2.8.06,1.84.54,2.77.61,1.89-.25,2.82-.17,1.87.05,2.8.14,1.86.21,2.78.32,1.85.28,2.77.41,1.85.24,2.78.38,1.83.37,2.75.54,1.87.17,2.79.35,1.77.69,2.68.89,1.9.07,2.81.27,1.76.68,2.66.91,1.73.74,2.64.98,1.95-.05,2.85.2,1.79.56,2.68.83,1.76.64,2.65.93,1.83.43,2.71.73,1.72.75,2.6,1.06,1.74.69,2.61,1.03,1.6,1.02,2.47,1.37,1.88.33,2.74.69,1.74.68,2.6,1.06,1.5,1.21,2.35,1.6,1.7.76,2.54,1.17,1.83.51,2.66.93,1.68.82,2.5,1.26,1.64.89,2.46,1.34,1.65.88,2.46,1.34,1.62.93,2.42,1.4,1.37,1.33,2.17,1.82,1.72.77,2.5,1.28,1.54,1.06,2.31,1.58,1.78.7,2.55,1.23,1.29,1.41,2.05,1.96,1.6.97,2.35,1.53,1.32,1.35,2.05,1.92,1.71.85,2.43,1.43,1.22,1.46,1.94,2.05,1.39,1.24,2.1,1.85c.7.6,1.42,1.18,2.11,1.8s1.62.97,2.3,1.59,1.04,1.59,1.71,2.23,1.46,1.15,2.12,1.8,1.3,1.31,1.95,1.97,1.27,1.34,1.91,2.01c.6.64,1.35,1.13,1.94,1.78s1.31,1.18,1.89,1.83,1.15,1.32,1.72,1.99.94,1.5,1.5,2.17.86,1.55,1.41,2.23,1.12,1.34,1.66,2.03,1.42,1.11,1.95,1.81.77,1.61,1.28,2.32,1.22,1.28,1.72,2c.56.8.92,1.75,1.46,2.56s1.33,1.47,1.86,2.29.96,1.71,1.48,2.55.98,1.7,1.48,2.54.78,1.81,1.27,2.66,1.22,1.56,1.69,2.42.97,1.7,1.43,2.57,1.17,1.61,1.61,2.48.53,1.93.95,2.81.94,1.72,1.35,2.62.63,1.87,1.02,2.76,1.01,1.7,1.38,2.61.91,1.75,1.26,2.66.74,1.82,1.08,2.74.62,1.87.94,2.79.18,2.01.49,2.94.79,1.81,1.08,2.75.74,1.83,1.01,2.78.34,1.95.6,2.9.46,1.91.7,2.86.69,1.86.91,2.82,0,2.02.21,2.98c.19.9.87,1.76,1.08,2.71s-.06,1.95-.04,2.87c0,.33.37.7.21.99-.33.58-1.2.35-1.76.35-.54,0-1.09,0-1.63,0-.69,0-1.37.26-2.06.26-.83,0-1.65-.36-2.48-.36-.96,0-1.92-.19-2.87-.19-1.09,0-2.17.6-3.26.6-1.21,0-2.42-.47-3.63-.47-1.33,0-2.65.24-3.98.24-.72,0-1.44-.19-2.16-.19s-1.44-.07-2.16-.07c-.77,0-1.54.35-2.32.35s-1.54.18-2.32.18c-.82,0-1.65-.56-2.47-.56s-1.65.24-2.47.24c-.87,0-1.74-.01-2.61-.01s-1.74-.08-2.61-.08c-.92,0-1.83.32-2.75.32s-1.83-.2-2.75-.2-1.92-.16-2.88-.16-1.92.41-2.88.41-2-.07-3-.07-2-.35-3-.35-2.07-.19-3.11-.19-2.07.38-3.11.38-2.14-.3-3.21-.3-2.14.01-3.21.01-2.21.23-3.31.23-2.21.23-3.31.23-2.27-.47-3.4-.47-2.27.36-3.4.36c-.77,0-1.55-.46-2.32-.46s-1.55.32-2.32.32-1.55-.32-2.32-.32-1.58.45-2.37.45-1.58,0-2.37,0-1.58-.34-2.37-.34-1.61.36-2.41.36-1.61.15-2.41.15-1.61-.38-2.41-.38-1.63.2-2.45.2-1.63-.24-2.45-.24-1.63.01-2.45.01-1.65.05-2.48.05-1.65.02-2.48.02-1.65.39-2.48.39-1.67-.14-2.51-.14-1.67-.27-2.51-.27-1.67-.09-2.51-.09-1.69.33-2.53.33-1.69-.1-2.53-.1-1.69.21-2.53.21-1.7-.59-2.55-.59-1.7.52-2.55.52-1.7-.24-2.55-.24-1.7.34-2.56.34-1.7-.6-2.56-.6-1.7.26-2.56.26-1.71-.19-2.56-.19-1.71-.05-2.56-.05-1.71.57-2.56.57-1.71-.11-2.56-.11-1.71-.37-2.56-.37-1.71.03-2.56.03-1.71.35-2.56.35-1.71.1-2.56.1-1.71-.12-2.56-.12-1.7-.47-2.55-.47-1.7.27-2.55.27-1.7.32-2.55.32-1.69-.16-2.53-.16-1.69-.23-2.53-.23-1.69.15-2.53.15-1.67.24-2.51.24-1.67-.45-2.51-.45-1.67.09-2.51.09-1.66-.08-2.49-.08-1.66.24-2.49.24-1.66.07-2.49.07-1.64.18-2.45.18-1.64-.44-2.45-.44-1.64.11-2.45.11-1.61.18-2.42.18-1.61.14-2.42.14-1.61-.34-2.42-.34-1.58-.19-2.37-.19-1.58.4-2.37.4-1.58-.18-2.37-.18-1.55.04-2.33.04-1.55-.25-2.33-.25-1.55-.07-2.33-.07c-1.14,0-2.27.31-3.41.31s-2.27.18-3.41.18-2.22-.43-3.33-.43-2.22.05-3.33.05-2.15-.17-3.23-.17-2.15.08-3.23.08-2.08.31-3.13.31-2.08-.33-3.13-.33-2.01.44-3.02.44-2.01-.43-3.02-.43-1.93.18-2.9.18-1.93-.22-2.9-.22-1.85.17-2.77.17-1.85-.18-2.77-.18-1.76.26-2.64.26-1.76-.1-2.64-.1c-.83,0-1.66.44-2.49.44s-1.66-.21-2.49-.21c-.78,0-1.56-.29-2.34-.29s-1.56-.04-2.34-.04c-.73,0-1.46.25-2.18.25s-1.46.09-2.18.09c-1.34,0-2.69-.09-4.03-.09-1.23,0-2.46-.03-3.68-.03-1.11,0-2.21,0-3.32,0-.98,0-1.96.19-2.94.19-.85,0-1.69.08-2.54.08-.71,0-1.42-.35-2.13-.35-.57,0-1.13-.09-1.7-.09-.49,0-1.65.45-1.98.13-.16-.15.11-.52.09-.74-.1-.84-.16-1.62-.01-2.44.14-.76.25-1.53.4-2.29.2-.97.47-1.93.68-2.89s.69-1.87.92-2.83.47-1.92.72-2.87.54-1.9.8-2.85.19-2,.48-2.94.89-1.79,1.19-2.73.19-2.01.51-2.95.76-1.83,1.09-2.76,1.08-1.7,1.43-2.61.71-1.83,1.08-2.74.75-1.81,1.13-2.72.25-2.04.65-2.94,1.21-1.61,1.63-2.5.46-1.96.89-2.84,1.18-1.61,1.63-2.48.92-1.73,1.39-2.6.83-1.79,1.31-2.65,1.18-1.59,1.68-2.44,1.11-1.62,1.62-2.46.65-1.91,1.18-2.74,1.08-1.65,1.63-2.47.9-1.77,1.46-2.58,1.25-1.53,1.82-2.34,1.39-1.43,1.98-2.22,1.21-1.56,1.81-2.34,1.32-1.47,1.94-2.24,1.12-1.63,1.75-2.39,1.41-1.39,2.05-2.14,1.11-1.66,1.77-2.4,1.12-1.67,1.79-2.39,1.67-1.15,2.35-1.87,1.26-1.54,1.96-2.24,1.45-1.36,2.16-2.04,1.56-1.23,2.29-1.9,1.17-1.66,1.9-2.32,1.7-1.06,2.46-1.71ZM7.12,187.64c-.49,0-.93-.21-.97-.7-.06-.86.25-1.73.2-2.59s-.57-1.69-.6-2.55c-.02-.59.13-1.6.13-2.53s-.1-2.12.61-2.47c.56-.27,1.55-.11,2.45-.08s1.75.13,2.37.13c.74,0,1.48.32,2.22.32s1.48-.61,2.22-.61c1.02,0,2.05.28,3.07.28s2.05-.05,3.07-.05,2.05.26,3.07.26,2.05-.16,3.07-.16c.9,0,1.81-.15,2.71-.15s1.81.02,2.71.02,1.81.29,2.71.29,1.81-.5,2.71-.5,1.81.6,2.71.6,1.81-.01,2.71-.01,1.87-.21,2.81-.21,1.87.12,2.81.12,1.87-.14,2.81-.14,1.87.05,2.81.05,1.87-.23,2.81-.23,1.87.12,2.81.12,1.87.15,2.81.15,1.86.03,2.79.03,1.86-.29,2.79-.29,1.86.04,2.79.04,1.86.34,2.79.34,1.86-.28,2.79-.28,1.86.22,2.79.22,1.86-.22,2.79-.22,1.86-.17,2.79-.17,1.81-.1,2.71-.1,1.81.27,2.71.27,1.81-.07,2.71-.07,1.81-.08,2.71-.08,1.81-.06,2.71-.06,1.81.53,2.71.53,1.81-.31,2.71-.31,1.81.3,2.71.3,1.81-.34,2.71-.34c.96,0,1.91-.06,2.87-.06s1.91.44,2.87.44,1.91-.39,2.87-.39,1.91-.12,2.87-.12,1.91,0,2.87,0,1.91.04,2.87.04,1.91-.03,2.87-.03,1.91.08,2.87.08,1.91-.16,2.87-.16c.89,0,1.77.34,2.66.34s1.77-.34,2.66-.34,1.77.27,2.66.27,1.77.3,2.66.3,1.77-.56,2.66-.56,1.77.04,2.66.04,1.77.1,2.66.1,1.77-.16,2.66-.16,1.77.14,2.66.14,1.77.05,2.66.05,1.78.37,2.67.37,1.78-.4,2.67-.4,1.78-.06,2.67-.06,1.78.49,2.67.49,1.78-.03,2.67-.03,1.78-.35,2.67-.35,1.78-.03,2.67-.03,1.78,0,2.67,0,1.78-.04,2.67-.04,1.78-.01,2.67-.01c.97,0,1.93.43,2.9.43s1.93-.26,2.9-.26,1.93.05,2.9.05,1.93-.42,2.9-.42,1.93.41,2.9.41,1.93-.16,2.9-.16,1.93.28,2.9.28,1.93-.38,2.9-.38,1.93.36,2.9.36,1.85.06,2.77.06,1.85-.04,2.77-.04,1.85-.37,2.77-.37,1.85.45,2.77.45,1.85-.19,2.77-.19,1.85,0,2.77,0,1.85.02,2.77.02,1.85-.21,2.77-.21,1.85-.18,2.77-.18,1.92,0,2.88,0,1.92.26,2.88.26,1.92.32,2.88.32,1.92-.05,2.88-.05,1.92-.45,2.88-.45,1.92.34,2.88.34,1.92-.24,2.88-.24,1.92.24,2.88.24,1.96-.29,2.94-.29,1.96.12,2.94.12,1.96.06,2.94.06,1.96.25,2.94.25,1.96-.29,2.94-.29,1.96-.04,2.94-.04,1.96-.3,2.94-.3,1.93.39,2.9.39,1.93-.11,2.9-.11,1.93.2,2.9.2,1.93-.26,2.9-.26,1.93-.18,2.9-.18,1.93-.03,2.9-.03c.91,0,1.81.06,2.72.06s1.81.49,2.72.49,1.81-.19,2.72-.19,1.81-.17,2.72-.17,1.81.2,2.72.2c1.01,0,2.03.04,3.04.04s2.03-.22,3.04-.22,2.03.44,3.04.44c1.07,0,2.15-.44,3.22-.44.52,0,.61.54.6,1.05-.01,1.01.34,2.03.31,3.05s-.14,2.03-.19,3.04-.12,2.03-.19,3.04c-.03.49-.42,1.11-.91,1.11-1.38,0-1.38-.36-2.76-.36s-1.38-.19-2.76-.19-1.38.6-2.76.6-1.38-.47-2.76-.47-1.38.24-2.76.24-1.38-.19-2.76-.19-1.38-.07-2.76-.07-1.38.35-2.76.35-1.38.18-2.76.18-1.38-.56-2.76-.56-1.38.24-2.76.24-1.38-.01-2.76-.01-1.38-.08-2.76-.08-1.38.32-2.76.32-1.38-.2-2.76-.2-1.38-.16-2.76-.16-1.38.41-2.76.41-1.38-.07-2.76-.07-1.38-.35-2.76-.35-1.38-.19-2.76-.19-1.38.38-2.76.38-1.38-.3-2.76-.3-1.38.01-2.76.01-1.38.23-2.76.23-1.38.23-2.76.23-1.38-.47-2.76-.47-1.38.36-2.76.36-1.38-.46-2.76-.46-1.38.32-2.76.32-1.38-.32-2.76-.32-1.38.45-2.76.45-1.38,0-2.76,0-1.38-.34-2.76-.34-1.38.36-2.76.36-1.38.15-2.76.15-1.38-.38-2.76-.38-1.38.2-2.76.2-1.38-.24-2.76-.24-1.38.01-2.76.01-1.38.05-2.76.05-1.38.02-2.76.02-1.38.39-2.76.39-1.38-.14-2.76-.14-1.38-.27-2.76-.27-1.38-.09-2.76-.09-1.38.33-2.76.33-1.38-.1-2.76-.1-1.38.21-2.76.21-1.38-.59-2.76-.59-1.38.52-2.76.52-1.38-.24-2.76-.24-1.38.34-2.76.34-1.38-.6-2.76-.6-1.38.26-2.76.26-1.38-.19-2.76-.19-1.38-.05-2.76-.05-1.38.57-2.76.57-1.38-.11-2.76-.11-1.38-.37-2.76-.37-1.38.03-2.76.03-1.38.35-2.76.35-1.38.1-2.76.1-1.38-.12-2.76-.12-1.38-.47-2.76-.47-1.38.27-2.76.27-1.38.32-2.76.32-1.38-.16-2.76-.16-1.38-.23-2.76-.23-1.38.15-2.76.15-1.38.24-2.76.24-1.38-.45-2.76-.45-1.38.09-2.76.09-1.38-.08-2.76-.08-1.38.24-2.76.24-1.38.07-2.76.07-1.38.18-2.76.18-1.38-.44-2.76-.44-1.38.11-2.76.11-1.38.18-2.76.18-1.38.14-2.76.14-1.38-.34-2.76-.34-1.38-.19-2.76-.19-1.38.4-2.76.4-1.38-.18-2.76-.18-1.38.04-2.76.04-1.38-.25-2.76-.25-1.38-.07-2.76-.07-1.38.31-2.76.31-1.38.18-2.76.18-1.38-.43-2.76-.43-1.38.05-2.76.05-1.38-.17-2.76-.17-1.38.08-2.76.08-1.38.31-2.76.31-1.38-.33-2.76-.33-1.38.44-2.76.44-1.38-.43-2.76-.43-1.38.18-2.76.18-1.38-.22-2.76-.22-1.38.17-2.76.17-1.38-.18-2.76-.18-1.38.26-2.76.26-1.38-.1-2.76-.1-1.38.44-2.77.44-1.38-.21-2.76-.21-1.38-.29-2.77-.29-1.38-.04-2.76-.04-1.38.25-2.77.25-1.38.09-2.77.09-1.38-.09-2.77-.09-1.38-.03-2.76-.03-1.38,0-2.77,0-1.38.19-2.77.19-1.38.08-2.77.08-1.38-.3-2.77-.35-1.39-.06-2.78-.06Zm-.83-13.18c-.47-.57-.7-1.55-.65-2.65s.59-2.2.61-2.83c.03-.63-.55-1.65-.49-2.58s.53-1.72,1.22-2.1c.54-.3,1.37-.74,2.3-.72s1.78.33,2.41.33c.74,0,1.48.01,2.21.01s1.48.32,2.21.32c1.02,0,2.05-.61,3.07-.61s2.05.28,3.07.28,2.05-.05,3.07-.05,2.05.26,3.07.26c.91,0,1.81-.16,2.72-.16s1.81-.15,2.72-.15,1.81.02,2.72.02,1.81.29,2.72.29,1.81-.5,2.72-.5,1.81.6,2.72.6,1.87-.01,2.81-.01,1.87-.21,2.81-.21,1.87.12,2.81.12,1.87-.14,2.81-.14,1.87.05,2.81.05,1.87-.23,2.81-.23,1.87.12,2.81.12,1.86.15,2.8.15,1.86.03,2.8.03,1.86-.29,2.8-.29,1.86.04,2.8.04,1.86.34,2.8.34,1.86-.28,2.8-.28,1.86.22,2.8.22,1.86-.22,2.8-.22,1.81-.17,2.71-.17,1.81-.1,2.71-.1,1.81.27,2.71.27,1.81-.07,2.71-.07,1.81-.08,2.71-.08,1.81-.06,2.71-.06,1.81.53,2.71.53,1.81-.31,2.71-.31,1.81.3,2.71.3c.96,0,1.91-.34,2.87-.34s1.91-.06,2.87-.06,1.91.44,2.87.44,1.91-.39,2.87-.39,1.91-.12,2.87-.12,1.91,0,2.87,0,1.91.04,2.87.04,1.91-.03,2.87-.03,1.91.08,2.87.08c.89,0,1.77-.16,2.66-.16s1.77.34,2.66.34,1.77-.34,2.66-.34,1.77.27,2.66.27,1.77.3,2.66.3,1.77-.56,2.66-.56,1.77.04,2.66.04,1.77.1,2.66.1,1.77-.16,2.66-.16,1.77.14,2.66.14,1.78.05,2.67.05,1.78.37,2.67.37,1.78-.4,2.67-.4,1.78-.06,2.67-.06,1.78.49,2.67.49,1.78-.03,2.67-.03,1.78-.35,2.67-.35,1.78-.03,2.67-.03,1.78,0,2.67,0,1.78-.04,2.67-.04c.97,0,1.93-.01,2.9-.01s1.93.43,2.9.43,1.93-.26,2.9-.26,1.93.05,2.9.05,1.93-.42,2.9-.42,1.93.41,2.9.41,1.93-.16,2.9-.16,1.93.28,2.9.28,1.93-.38,2.9-.38,1.84.36,2.76.36,1.84.06,2.76.06,1.84-.04,2.76-.04,1.84-.37,2.76-.37,1.84.45,2.76.45,1.84-.19,2.76-.19,1.84,0,2.76,0,1.84.02,2.76.02,1.84-.21,2.76-.21,1.92-.18,2.88-.18,1.92,0,2.88,0,1.92.26,2.88.26,1.92.32,2.88.32,1.92-.05,2.88-.05,1.92-.45,2.88-.45,1.92.34,2.88.34,1.92-.24,2.88-.24,1.95.24,2.93.24,1.95-.29,2.93-.29,1.95.12,2.93.12,1.95.06,2.93.06,1.95.25,2.93.25,1.95-.29,2.93-.29,1.95-.04,2.93-.04,1.92-.3,2.88-.3,1.92.39,2.88.39,1.92-.11,2.88-.11,1.92.2,2.88.2,1.92-.26,2.88-.26,1.92-.18,2.88-.18c.9,0,1.79-.03,2.69-.03s1.79.06,2.69.06,1.79.49,2.69.49,1.79-.19,2.69-.19,1.79-.17,2.69-.17c1,0,1.99.2,2.99.2s1.99.04,2.99.04,1.99-.22,2.99-.22,2.2.24,3.2.48c.28.07.67-.05.78.21.26.63-.27,1.55-.23,2.22.05.88.47,1.73.5,2.61s0,1.76.01,2.64c0,.39.29,2.23.03,2.48-.15.15-.21.5-.37.65-1.18.07-1.19-.36-2.37-.36s-1.18-.19-2.36-.19c-.81,0-1.62.6-2.43.6s-1.62-.47-2.43-.47-1.62.24-2.43.24-1.62-.19-2.43-.19c-.94,0-1.88-.07-2.81-.07s-1.88.35-2.81.35-1.88.18-2.81.18-1.88-.56-2.81-.56-1.88.24-2.81.24c-.99,0-1.97-.01-2.96-.01s-1.97-.08-2.96-.08-1.97.32-2.96.32-1.97-.2-2.96-.2-1.97-.16-2.96-.16-1.97.41-2.96.41c-.87,0-1.74-.07-2.6-.07s-1.74-.35-2.6-.35-1.74-.19-2.6-.19-1.74.38-2.6.38-1.74-.3-2.6-.3-1.74.01-2.6.01-1.74.23-2.6.23-1.74.23-2.6.23c-.97,0-1.94-.47-2.9-.47s-1.94.36-2.9.36-1.94-.46-2.9-.46-1.94.32-2.9.32-1.94-.32-2.9-.32-1.94.45-2.9.45-1.94,0-2.9,0-1.94-.34-2.9-.34-1.85.36-2.78.36-1.85.15-2.78.15-1.85-.38-2.78-.38-1.85.2-2.78.2-1.85-.24-2.78-.24-1.85.01-2.78.01-1.85.05-2.78.05-1.85.02-2.78.02-1.85.39-2.78.39-1.93-.14-2.9-.14-1.93-.27-2.9-.27-1.93-.09-2.9-.09-1.93.33-2.9.33-1.93-.1-2.9-.1-1.93.21-2.9.21-1.93-.59-2.9-.59-1.93.52-2.9.52-1.93-.24-2.9-.24c-.89,0-1.77.34-2.66.34s-1.77-.6-2.66-.6-1.77.26-2.66.26-1.77-.19-2.66-.19-1.77-.05-2.66-.05-1.77.57-2.66.57-1.77-.11-2.66-.11-1.77-.37-2.66-.37-1.77.03-2.66.03-1.77.35-2.66.35-1.76.1-2.64.1-1.76-.12-2.64-.12-1.76-.47-2.64-.47-1.76.27-2.64.27-1.76.32-2.64.32-1.76-.16-2.64-.16-1.76-.23-2.64-.23-1.76.15-2.64.15-1.76.24-2.64.24-1.76-.45-2.64-.45c-.95,0-1.9.09-2.85.09s-1.9-.08-2.85-.08-1.9.24-2.85.24-1.9.07-2.85.07-1.9.18-2.85.18-1.9-.44-2.85-.44-1.9.11-2.85.11-1.9.18-2.85.18-1.9.14-2.85.14c-.89,0-1.79-.34-2.68-.34s-1.79-.19-2.68-.19-1.79.4-2.68.4-1.79-.18-2.68-.18-1.79.04-2.68.04-1.79-.25-2.68-.25-1.79-.07-2.68-.07-1.79.31-2.68.31-1.79.18-2.68.18-1.84-.43-2.76-.43-1.84.05-2.76.05-1.84-.17-2.76-.17-1.84.08-2.76.08-1.84.31-2.76.31-1.84-.33-2.76-.33-1.84.44-2.76.44-1.84-.43-2.76-.43-1.84.18-2.76.18-1.84-.22-2.76-.22-1.84.17-2.76.17-1.84-.18-2.76-.18-1.84.26-2.76.26-1.84-.1-2.76-.1-1.84.44-2.76.44-1.77-.21-2.65-.21-1.77-.29-2.65-.29-1.77-.04-2.65-.04-1.77.25-2.65.25-1.77.09-2.65.09-1.77-.09-2.65-.09c-.99,0-1.98-.03-2.97-.03s-1.98,0-2.97,0-1.98.19-2.97.19-1.98.08-2.97.08c-.7,0-1.41-.35-2.11-.35s-1.41-.09-2.11-.09c-.48,0-1.37.43-2.24.45-.95.03-1.72-.32-2.05-.61-.05-.04-.11-.02-.15-.07Zm.46-12.84c-.07-.08-.25-.06-.27-.16-.15-.8.41-1.67.49-2.47.09-.87-.3-1.79-.19-2.66.11-.92.55-1.8.67-2.72.09-.67-.28-2.05.27-2.55.46-.41,1.86-.08,2.52-.08.59,0,1.18.01,1.76.01.73,0,1.46.32,2.19.32.87,0,1.74-.61,2.6-.61,1,0,2,.28,3,.28,1.13,0,2.25-.05,3.38-.05,1.25,0,2.5.26,3.74.26,1.36,0,2.73-.16,4.09-.16.74,0,1.47-.15,2.21-.15s1.47.02,2.21.02c.79,0,1.58.29,2.37.29s1.58-.5,2.37-.5c.84,0,1.68.6,2.52.6s1.68-.01,2.52-.01c.89,0,1.78-.21,2.66-.21s1.78.12,2.66.12c.93,0,1.86-.14,2.8-.14s1.86.05,2.8.05,1.95-.23,2.92-.23,1.95.12,2.92.12,2.03.15,3.04.15,2.03.03,3.04.03,2.1-.29,3.15-.29,2.1.04,3.15.04,2.17.34,3.25.34,2.17-.28,3.25-.28,2.23.22,3.35.22,2.23-.22,3.35-.22,2.29-.17,3.43-.17,2.29-.1,3.43-.1c.78,0,1.56.27,2.34.27s1.56-.07,2.34-.07,1.56-.08,2.34-.08,1.59-.06,2.39-.06,1.59.53,2.39.53,1.59-.31,2.39-.31,1.62.3,2.43.3,1.62-.34,2.43-.34,1.62-.06,2.43-.06,1.64.44,2.47.44,1.64-.39,2.47-.39,1.64-.12,2.47-.12,1.66,0,2.5,0,1.66.04,2.5.04,1.66-.03,2.5-.03,1.68.08,2.52.08,1.68-.16,2.52-.16,1.68.34,2.52.34,1.69-.34,2.54-.34,1.69.27,2.54.27,1.69.3,2.54.3,1.7-.56,2.56-.56,1.7.04,2.56.04,1.7.1,2.56.1,1.71-.16,2.57-.16,1.71.14,2.57.14,1.71.05,2.57.05,1.71.37,2.57.37,1.71-.4,2.57-.4,1.71-.06,2.57-.06,1.71.49,2.57.49,1.71-.03,2.57-.03,1.71-.35,2.57-.35,1.71-.03,2.56-.03,1.71,0,2.56,0,1.71-.04,2.56-.04,1.7-.01,2.55-.01,1.7.43,2.55.43,1.7-.26,2.55-.26,1.69.05,2.53.05,1.69-.42,2.53-.42,1.69.41,2.53.41,1.67-.16,2.51-.16,1.67.28,2.51.28,1.67-.38,2.51-.38,1.65.36,2.48.36,1.65.06,2.48.06,1.65-.04,2.48-.04,1.63-.37,2.45-.37,1.63.45,2.45.45,1.63-.19,2.45-.19,1.61,0,2.41,0,1.61.02,2.41.02,1.61-.21,2.41-.21,1.58-.18,2.37-.18,1.58,0,2.37,0,1.58.26,2.37.26,1.54.32,2.32.32,1.54-.05,2.32-.05,1.54-.45,2.32-.45c1.13,0,2.26.34,3.39.34s2.26-.24,3.39-.24,2.2.24,3.3.24,2.2-.29,3.3-.29,2.14.12,3.21.12,2.14.06,3.21.06,2.07.25,3.1.25,2.07-.29,3.1-.29,1.99-.04,2.99-.04,1.99-.3,2.99-.3,1.91.39,2.86.39,1.91-.11,2.86-.11,1.82.2,2.73.2,1.82-.26,2.73-.26,1.73-.18,2.6-.18,1.73-.03,2.6-.03c.82,0,1.63.06,2.45.06s1.63.49,2.45.49c.77,0,1.53-.19,2.3-.19s1.53-.17,2.3-.17c.71,0,1.42.2,2.13.2s1.42.04,2.13.04c1.31,0,2.62-.22,3.93-.22,1.19,0,2.38.44,3.57.44,1.07,0,2.13-.44,3.2-.44.94,0,1.88.45,2.81.45.8,0,1.61-.38,2.41-.38.66,0,1.33.06,1.99.06.52,0,1.04,0,1.55,0,.58.02,1.36-.19,1.82.24.55.5.22,1.48.31,2.16.13.96.06,1.94.18,2.9.09.75.82,1.47.91,2.25s-.33,1.58-.4,2.34c-.04.36,0,.83-.34.97-.4.17-1.16-.06-1.6-.09-.44,0-.89-.07-1.34-.07-.54,0-1.08.35-1.62.35-.63,0-1.27.18-1.9.18-.72,0-1.45-.56-2.17-.56-.81,0-1.62.24-2.43.24-.9,0-1.79-.01-2.69-.01-.98,0-1.95-.08-2.93-.08-1.06,0-2.11.32-3.17.32-1.13,0-2.26-.2-3.4-.2-1.21,0-2.41-.16-3.62-.16-1.28,0-2.55.41-3.83.41-1.34,0-2.69-.07-4.03-.07-.7,0-1.41-.35-2.11-.35s-1.41-.19-2.11-.19-1.47.38-2.2.38-1.47-.3-2.2-.3-1.53.01-2.29.01-1.53.23-2.29.23-1.58.23-2.37.23-1.58-.47-2.37-.47-1.64.36-2.45.36-1.64-.46-2.45-.46-1.69.32-2.53.32-1.69-.32-2.53-.32-1.73.45-2.6.45-1.73,0-2.6,0-1.78-.34-2.67-.34-1.78.36-2.67.36-1.82.15-2.73.15-1.82-.38-2.73-.38-1.86.2-2.79.2-1.86-.24-2.79-.24-1.89.01-2.84.01-1.89.05-2.84.05-1.93.02-2.89.02-1.93.39-2.89.39-1.96-.14-2.94-.14-1.96-.27-2.94-.27-1.98-.09-2.98-.09-1.98.33-2.98.33-2.01-.1-3.01-.1-2.01.21-3.01.21-2.03-.59-3.05-.59-2.03.52-3.05.52-2.05-.24-3.07-.24-2.05.34-3.07.34-2.06-.6-3.1-.6-2.06.26-3.1.26-2.08-.19-3.12-.19-2.08-.05-3.12-.05-2.09.57-3.13.57-2.09-.11-3.13-.11-2.09-.37-3.14-.37-2.09.03-3.14.03-2.1.35-3.15.35-2.1.1-3.15.1-2.1-.12-3.15-.12-2.1-.47-3.15-.47-2.1.27-3.15.27-2.1.32-3.15.32-2.09-.16-3.14-.16-2.09-.23-3.14-.23-2.09.15-3.13.15-2.09.24-3.13.24-2.08-.45-3.12-.45-2.08.09-3.12.09-2.06-.08-3.1-.08-2.06.24-3.1.24-2.05.07-3.07.07-2.05.18-3.07.18-2.03-.44-3.05-.44-2.03.11-3.05.11-2.01.18-3.01.18-2.01.14-3.01.14-1.98-.34-2.98-.34-1.98-.19-2.98-.19-1.96.4-2.94.4-1.96-.18-2.94-.18-1.93.04-2.89.04-1.93-.25-2.89-.25-1.89-.07-2.84-.07-1.89.31-2.84.31-1.86.18-2.79.18-1.86-.43-2.79-.43-1.82.05-2.73.05-1.82-.17-2.73-.17-1.78.08-2.67.08-1.78.31-2.67.31-1.73-.33-2.6-.33-1.73.44-2.6.44-1.69-.43-2.53-.43-1.69.18-2.53.18-1.64-.22-2.45-.22-1.64.17-2.45.17-1.58-.18-2.37-.18-1.58.26-2.37.26-1.53-.1-2.29-.1-1.53.44-2.29.44-1.47-.21-2.2-.21-1.47-.29-2.2-.29-1.41-.04-2.11-.04-1.41.25-2.11.25c-1.34,0-2.68.09-4.03.09s-2.55-.09-3.82-.09c-1.2,0-2.41-.03-3.61-.03-1.13,0-2.26,0-3.39,0-1.06,0-2.11.19-3.17.19-.98,0-1.95.08-2.93.08-.9,0-1.79-.35-2.69-.35-.81,0-1.62-.09-2.43-.09-.72,0-1.45.34-2.17.34-.63,0-1.27-.37-1.9-.37-.54,0-1.08.33-1.62.33-.44,0-.89.04-1.33.04-.55,0-1.1-.07-1.65-.13-.15-.02-.18-.23-.28-.34Zm1.33,38.77s-.19.09-.21.07c-.43-.52-.06-1.45-.15-2.09-.11-.77-.7-1.48-.79-2.25s.13-1.6.04-2.39-.58-1.53-.66-2.31c-.04-.41.02-1.11.29-1.47.18-.24.75-.17,1.06-.17.26,0,.51.32.77.32.32,0,.63-.61.95-.61.37,0,.75.28,1.12.28.43,0,.86-.05,1.3-.05.49,0,.98.26,1.46.26.54,0,1.08-.16,1.63-.16.6,0,1.19-.15,1.79-.15.65,0,1.29.02,1.94.02.7,0,1.4.29,2.09.29.75,0,1.49-.5,2.24-.5.8,0,1.59.6,2.39.6.84,0,1.68-.01,2.53-.01.89,0,1.77-.21,2.66-.21.93,0,1.86.12,2.79.12s1.95-.14,2.92-.14,2.03.05,3.04.05,2.11-.23,3.16-.23,2.19.12,3.28.12,2.26.15,3.39.15,2.33.03,3.5.03,2.4-.29,3.6-.29,2.47.04,3.7.04,2.53.34,3.8.34,2.59-.28,3.89-.28,2.65.22,3.98.22,2.71-.22,4.06-.22,2.76-.17,4.14-.17c.7,0,1.4-.1,2.11-.1s1.4.27,2.11.27,1.43-.07,2.14-.07,1.43-.08,2.14-.08,1.45-.06,2.18-.06,1.45.53,2.18.53,1.47-.31,2.21-.31,1.47.3,2.21.3,1.49-.34,2.24-.34,1.49-.06,2.24-.06,1.51.44,2.27.44,1.51-.39,2.27-.39,1.53-.12,2.29-.12,1.53,0,2.29,0,1.54.04,2.32.04,1.54-.03,2.32-.03,1.56.08,2.34.08,1.56-.16,2.34-.16,1.57.34,2.36.34,1.57-.34,2.36-.34,1.58.27,2.37.27,1.58.3,2.37.3,1.59-.56,2.39-.56,1.59.04,2.39.04,1.6.1,2.4.1,1.6-.16,2.4-.16,1.61.14,2.42.14,1.61.05,2.42.05,1.62.37,2.43.37,1.62-.4,2.43-.4,1.62-.06,2.43-.06,1.62.49,2.43.49,1.63-.03,2.44-.03,1.63-.35,2.44-.35,1.63-.03,2.44-.03,1.63,0,2.44,0,1.63-.04,2.44-.04,1.63-.01,2.44-.01,1.63.43,2.44.43,1.63-.26,2.44-.26,1.63.05,2.44.05,1.63-.42,2.44-.42,1.62.41,2.44.41,1.62-.16,2.44-.16,1.62.28,2.43.28,1.62-.38,2.43-.38,1.61.36,2.42.36,1.61.06,2.42.06,1.61-.04,2.41-.04,1.61-.37,2.41-.37,1.6.45,2.4.45,1.6-.19,2.4-.19,1.59,0,2.38,0,1.59.02,2.38.02,1.58-.21,2.37-.21,1.58-.18,2.37-.18,1.57,0,2.35,0,1.57.26,2.35.26,1.55.32,2.33.32,1.55-.05,2.33-.05,1.54-.45,2.31-.45,1.54.34,2.31.34,1.52-.24,2.28-.24,1.52.24,2.28.24,1.5-.29,2.26-.29,1.5.12,2.26.12,1.48.06,2.23.06,1.48.25,2.23.25,1.46-.29,2.2-.29,1.46-.04,2.2-.04,1.44-.3,2.16-.3,1.44.39,2.16.39,1.42-.11,2.13-.11,1.42.2,2.13.2,1.4-.26,2.09-.26,1.4-.18,2.09-.18c1.37,0,2.74-.03,4.11-.03s2.69.06,4.03.06,2.63.49,3.94.49,2.57-.19,3.85-.19,2.51-.17,3.76-.17,2.44.2,3.66.2,2.37.04,3.56.04,2.3-.22,3.46-.22,2.23.44,3.35.44,2.16-.44,3.23-.44,2.08.45,3.12.45,2-.38,3-.38,1.91.06,2.87.06,1.83,0,2.74,0,1.74-.26,2.61-.26c.82,0,1.65.36,2.47.36.78,0,1.55.19,2.33.19.73,0,1.46-.6,2.18-.6.68,0,1.36.47,2.04.47.63,0,1.25-.24,1.88-.24.57,0,1.15.19,1.72.19.52,0,1.04.07,1.56.07.47,0,.93-.35,1.4-.35.41,0,.82-.18,1.23-.18.35,0,.7.56,1.05.56.64,0,1.5-.31,2.01.16.5.47.42,1.28.31,1.96-.13.75-.3,1.49-.39,2.25s.15,1.55.07,2.3c-.1,1-.25,2.9-1.03,3.67-.47.46-1.31.28-1.92.26-.44,0-.88.41-1.32.41-.54,0-1.07-.07-1.61-.07-.63,0-1.26-.35-1.89-.35-.72,0-1.45-.19-2.17-.19-.81,0-1.62.38-2.44.38-.9,0-1.8-.3-2.69-.3-.98,0-1.96.01-2.94.01-1.06,0-2.12.23-3.18.23-1.14,0-2.28.23-3.41.23-1.21,0-2.42-.47-3.64-.47-1.28,0-2.57.36-3.85.36-1.35,0-2.7-.46-4.06-.46-.71,0-1.42.32-2.13.32s-1.42-.32-2.13-.32-1.48.45-2.22.45-1.48,0-2.22,0-1.54-.34-2.31-.34-1.54.36-2.31.36-1.6.15-2.39.15-1.6-.38-2.39-.38-1.65.2-2.47.2-1.65-.24-2.47-.24-1.7.01-2.55.01-1.7.05-2.55.05-1.75.02-2.62.02-1.75.39-2.62.39-1.79-.14-2.69-.14-1.79-.27-2.69-.27-1.83-.09-2.75-.09-1.83.33-2.75.33-1.87-.1-2.81-.1-1.87.21-2.81.21-1.91-.59-2.86-.59-1.91.52-2.86.52-1.94-.24-2.91-.24-1.94.34-2.91.34-1.97-.6-2.96-.6-1.97.26-2.96.26-2-.19-3-.19-2-.05-3-.05-2.02.57-3.03.57-2.02-.11-3.03-.11-2.04-.37-3.06-.37-2.04.03-3.06.03-2.06.35-3.09.35-2.06.1-3.09.1-2.08-.12-3.11-.12-2.08-.47-3.11-.47-2.09.27-3.13.27-2.09.32-3.13.32-2.1-.16-3.15-.16-2.1-.23-3.15-.23-2.1.15-3.16.15-2.1.24-3.16.24-2.11-.45-3.16-.45-2.11.09-3.16.09-2.11-.08-3.16-.08-2.11.24-3.16.24-2.11.07-3.16.07-2.11.18-3.16.18-2.1-.44-3.15-.44-2.1.11-3.15.11-2.09.18-3.14.18-2.09.14-3.14.14-2.08-.34-3.12-.34-2.08-.19-3.12-.19-2.07.4-3.1.4-2.07-.18-3.1-.18-2.05.04-3.07.04-2.05-.25-3.07-.25-2.03-.07-3.04-.07-2.03.31-3.04.31-2.01.18-3.01.18-2.01-.43-3.01-.43-1.98.05-2.97.05-1.98-.17-2.97-.17-1.95.08-2.93.08-1.95.31-2.93.31-1.92-.33-2.88-.33-1.92.44-2.88.44-1.88-.43-2.83-.43-1.88.18-2.83.18-1.85-.22-2.77-.22-1.85.17-2.77.17-1.8-.18-2.71-.18-1.8.26-2.71.26-1.76-.1-2.64-.1-1.76.44-2.64.44-1.71-.21-2.57-.21-1.71-.29-2.57-.29-1.66-.04-2.5-.04-1.66.25-2.5.25-1.61.09-2.42.09-1.61-.09-2.42-.09-1.56-.03-2.33-.03-1.56,0-2.33,0-1.5.19-2.25.19-1.5.08-2.25.08-1.44-.35-2.15-.35-1.44-.09-2.15-.09c-1.37,0-2.74.34-4.12.34s-2.61-.37-3.91-.37c-1.23,0-2.47.33-3.7.33-1.16,0-2.32.04-3.48.04-1.08,0-2.17-.07-3.25-.07-1.01,0-2.01-.26-3.02-.26-.92,0-1.85,0-2.77,0-.84,0-1.68-.03-2.52-.03-.75,0-1.5.36-2.25.36-.66,0-1.32-.33-1.98-.33-.57,0-1.13.44-1.7.44-.47,0-.94-.12-1.41-.12-.61,0-1.29-.32-1.86-.45-.1-.02-.12-.02-.21-.07-.05-.03-.12.07-.17.02Zm316.26-72.4c-.69-.39-.97-1.25-1.23-1.98-.16-.47-.2-1.37-.5-2.15s-.98-1.58-.76-2.07c.38-.87,2.64-.95,3.47-1.24.75-.26,1.36-.91,2.1-1.16.76-.26,1.66-.08,2.4.12s1.44.65,1.92,1.3.42,1.45.44,2.18c.02.79.33,1.73-.11,2.36s-1.3.97-2.07,1.23c-.64.22-1.26.49-1.89.71-.93.32-2.3.89-3.27.84-.23-.01-.35-.04-.51-.13Z"/>
      <path class="cls-2" d="m92.72,104.83c-1.27,0-1.27-.24-2.55-.24s-1.27.1-2.55.1-1.27.16-2.55.16-1.28.05-2.55.05-1.28-.31-2.55-.31c-.71,0-1.48.8-1.48,1.51,0,1.28.15,1.28.15,2.56s.06,1.28.06,2.57-.29,1.28-.29,2.57c0,.71.84,1.32,1.55,1.32,1.45,0,1.45.03,2.9.03s1.45-.12,2.91-.12,1.45-.09,2.91-.09c.71,0,1.13.72,1.13,1.43,0,0,.19,0,.19,0,0,.71-.6,1.15-1.31,1.15-1.45,0-1.45.32-2.9.32s-1.45.04-2.91.04-1.45-.17-2.91-.17c-.71,0-1.33.53-1.33,1.24,0,1.34-.04,1.34-.04,2.67s.25,1.34.25,2.67.07,1.34.07,2.68-.02,1.34-.02,2.68c0,.71-.79,1.37-1.5,1.37-.22,0-.22-.11-.44-.11-.71,0-1.18-.55-1.18-1.26,0-1.45-.15-1.45-.15-2.9s-.02-1.45-.02-2.9.21-1.45.21-2.9-.21-1.45-.21-2.9.24-1.45.24-2.9-.38-1.45-.38-2.9-.02-1.45-.02-2.9-.03-1.45-.03-2.91.32-1.45.32-2.91c0-.71.51-1.21,1.22-1.21,1.31,0,1.31.12,2.62.12s1.31-.13,2.62-.13,1.31.01,2.62.01,1.31-.11,2.63-.11,1.31-.21,2.63-.21,1.31.09,2.63.09c.71,0,1.36.73,1.36,1.44,0,0,.17,0,.17,0,0,.71-.82,1.3-1.53,1.3Z"/>
      <path class="cls-2" d="m134.31,120.71c0,.78-.45,1.49-.53,2.19-.09.77.32,1.61.13,2.29-.36,1.32-1.16,2.38-1.92,3.31-.75.93-1.78,1.52-2.93,2.03-.61.27-1.25.45-1.98.58-.65.11-1.33.6-2.07.6s-1.49-.09-2.15-.21c-.73-.13-1.26-.8-1.87-1.08-1.15-.51-2.22-.99-2.96-1.92-.74-.93-1.52-2.01-1.87-3.34-.19-.69,0-1.5-.08-2.28-.08-.71-.09-1.45-.09-2.23,0-1.41-.38-1.41-.38-2.81s.5-1.41.5-2.82,0-1.41,0-2.82-.05-1.41-.05-2.82-.37-1.41-.37-2.82.06-1.41.06-2.82c0-.83.81-1.31,1.64-1.31,0,0,0-.38,0-.38.83,0,1.28.86,1.28,1.69,0,1.41.27,1.41.27,2.82s.02,1.41.02,2.82-.1,1.41-.1,2.82-.14,1.41-.14,2.82.34,1.41.34,2.83-.04,1.41-.04,2.83c0,.86.15,1.75.3,2.71.15.97.28,1.86.72,2.65.45.79,1.04,1.45,1.84,1.98s1.83.99,3.11.99,2.25-.58,3.06-1.1,1.67-.98,2.12-1.77c.45-.79.79-1.72.93-2.69.15-.97-.18-1.91-.18-2.78,0-1.41.03-1.41.03-2.82s.27-1.41.27-2.82.05-1.41.05-2.82-.16-1.41-.16-2.82.19-1.41.19-2.83.05-1.41.05-2.83c0-.83.45-1.3,1.28-1.3.02,0,.02.06.04.06.83,0,1.56.41,1.56,1.24,0,1.41.14,1.41.14,2.82s-.3,1.41-.3,2.82-.15,1.41-.15,2.82.51,1.41.51,2.82-.26,1.41-.22,2.83.09,1.42.09,2.83Z"/>
      <path class="cls-2" d="m172.95,130.74c-.72,0-.72.33-1.43.33-.54,0-1.12-.42-1.36-.91-.61-1.27-.47-1.33-1.08-2.6s-.68-1.24-1.28-2.51-.76-1.2-1.36-2.47-.58-1.28-1.19-2.56-.72-1.22-1.33-2.49-.3-1.42-.9-2.7-.73-1.22-1.33-2.49c-.65-1.36-2.74-.92-2.74.58,0,1.38.24,1.38.24,2.76s-.13,1.38-.13,2.76.12,1.38.12,2.77,0,1.38,0,2.77,0,1.39,0,2.77.13,1.39.13,2.77c0,.78-.89,1.68-1.67,1.68-.09,0-.09-.38-.18-.38-.78,0-1.46-.52-1.46-1.3,0-1.43.02-1.43.02-2.87s-.04-1.44-.04-2.87-.09-1.44-.09-2.87-.01-1.43-.01-2.87.23-1.44.23-2.87.14-1.44.14-2.87-.11-1.44-.11-2.87-.19-1.44-.19-2.88,0-1.44,0-2.88c0-.78.73-1.28,1.51-1.28.96,0,.96.14,1.93.14.55,0,1.17-.01,1.4.48.57,1.19.41,1.26.98,2.45s.4,1.27.96,2.46.52,1.22,1.08,2.41,1.04.97,1.61,2.16.5,1.22,1.07,2.42.39,1.28.96,2.48.61,1.17,1.18,2.37c.65,1.36,2.71.91,2.71-.6,0-1.29.19-1.29.19-2.57s0-1.29,0-2.58-.35-1.29-.35-2.58-.11-1.29-.11-2.58.13-1.29.13-2.58.32-1.29.32-2.58c0-.78.42-1.4,1.2-1.4.11,0,.11-.05.23-.05.78,0,1.49.67,1.49,1.45,0,1.43.14,1.43.14,2.87s-.14,1.44-.14,2.87.1,1.44.1,2.87-.41,1.43-.41,2.87.35,1.44.35,2.87.12,1.44.12,2.87-.45,1.44-.45,2.87.36,1.44.36,2.88-.15,1.44-.15,2.88c0,.78-.63,1.23-1.41,1.23Z"/>
      <path class="cls-2" d="m216.6,116.62c0,.94.03,1.87-.07,2.77s-.26,1.85-.46,2.74c-.2.84-.55,1.61-.86,2.35-.33.79-.84,1.44-1.3,2.11-.44.66-.78,1.39-1.35,1.9s-1.39.67-2.08,1.05c-.74.4-1.47.76-2.36.95-.8.17-1.64.54-2.57.54-1.5,0-1.5-.24-3-.24s-1.5.26-3,.26c-.91,0-1.78-.46-2.38-1.06s-.99-1.47-.99-2.38c0-1.38.16-1.38.16-2.76s-.14-1.38-.14-2.76.12-1.38.12-2.75-.1-1.38-.1-2.76.2-1.38.2-2.76.01-1.38.01-2.76-.16-1.38-.16-2.76-.12-1.38-.12-2.76c0-.91.33-1.86.93-2.46s1.54-.68,2.46-.68c1.5,0,1.5,0,3,0s1.5-.07,3-.07c.93,0,1.82-.14,2.62.03.89.2,1.78.43,2.51.84.7.39,1.14,1.13,1.71,1.66s1.17,1.02,1.62,1.68c.46.68.64,1.5.97,2.29.31.74.67,1.47.88,2.31.21.88.23,1.79.33,2.72s.43,1.79.43,2.73Zm-3.08,0c0-1.08-.13-2.08-.25-3.01-.13-1.08-.34-2.05-.63-2.94-.33-1.03-.67-1.97-1.2-2.75-.46-.68-.9-1.36-1.48-1.81-.61-.48-1.41-.64-2.16-.87-.7-.22-1.44-.67-2.26-.67-1.5,0-1.5.09-3,.09-.91,0-1.66.63-2.26,1.23s-1.18,1.34-1.18,2.26c0,1.41.26,1.41.26,2.81s-.07,1.41-.07,2.82,0,1.41,0,2.82-.16,1.41-.16,2.82.14,1.41.14,2.82-.12,1.41-.12,2.82c0,.91.47,1.73,1.07,2.33s1.42,1.16,2.33,1.16c1.5,0,1.5.01,3,.01.82,0,1.59-.27,2.29-.48.75-.23,1.37-.68,1.98-1.15s1.02-1.04,1.49-1.71c.54-.78,1.28-1.53,1.61-2.56.29-.89.51-1.9.65-2.98.12-.94-.04-1.96-.04-3.04Z"/>
      <path class="cls-2" d="m255.33,104.91c-.41,0-.41.06-.83.06-.35,0-.5.13-.66.45-.65,1.3-.86,1.2-1.51,2.5s-.56,1.34-1.21,2.65-.78,1.23-1.43,2.54-.59,1.33-1.24,2.64-.61,1.32-1.26,2.63c-.06.13-.02.27-.02.41,0,1.44-.14,1.44-.14,2.88s.24,1.44.24,2.89-.11,1.44-.11,2.89c0,.51.33,1.03.85,1.03,1.38,0,1.38-.21,2.76-.21.51,0,.86.52.86,1.03,0,.36-.15.36-.15.72,0,.51-.2,1.08-.71,1.08-1.31,0-1.31-.36-2.61-.36s-1.31.33-2.61.33-1.31-.4-2.62-.4-1.31.37-2.62.37c-.51,0-.89-.51-.89-1.02,0-.36.08-.36.08-.72,0-.51.3-.97.81-.97,1.39,0,1.39-.19,2.78-.19.51,0,1.17-.18,1.17-.7,0-1.44-.5-1.44-.5-2.88s.44-1.44.44-2.89-.25-1.44-.25-2.89c0-.14.25-.39.19-.52-.65-1.3-1.08-1.08-1.73-2.39s-.54-1.36-1.19-2.66-.76-1.25-1.41-2.55-.58-1.34-1.23-2.64-.33-1.46-.98-2.77c-.16-.31-.63-.54-.98-.54-.42,0-.42.24-.83.24-.51,0-1.13-.55-1.13-1.06,0-.36.18-.36.18-.72,0-.51.44-1,.95-1,1.56,0,1.56-.19,3.12-.19s1.56.09,3.12.09c.51,0,.79.59.79,1.1,0,.36.23.36.23.72,0,.51-.5,1.19-1.02,1.19,0,0,0-.25,0-.25-.68,0-1.36.8-1.08,1.41.59,1.28.6,1.27,1.19,2.55s1.04,1.07,1.63,2.35.56,1.29,1.15,2.57c.33.72,1.12.78,1.45.06.59-1.28.83-1.17,1.41-2.44s.51-1.31,1.1-2.59.47-1.33,1.06-2.61c.28-.61-.18-1.1-.85-1.1,0,0,0-.37,0-.37-.51,0-.64-.26-.64-.77,0-.36-.39-.36-.39-.72,0-.51.53-.87,1.04-.87,1.56,0,1.56.18,3.12.18s1.56-.4,3.12-.4c.51,0,1.16.58,1.16,1.09,0,.36-.27.36-.27.72,0,.51-.38,1.01-.89,1.01Z"/>
      <path class="cls-2" d="m31.65,237.96c0,.83-.3,1.55-.46,2.26-.18.79-.39,1.48-.78,2.12s-.67,1.48-1.29,1.97c-.67.51-1.51.98-2.39,1.3-.78.28-1.76,0-2.7.13-.82.11-1.67.58-2.62.58-1.68,0-1.68-.03-3.37-.03s-1.68-.07-3.37-.07c-1.33,0-2.42-1.13-2.42-2.46,0-1.32.22-1.32.22-2.65s-.29-1.33-.29-2.65-.06-1.32-.06-2.64,0-1.32,0-2.65.19-1.33.19-2.65-.17-1.33-.17-2.65-.13-1.33-.13-2.65.32-1.33.32-2.66.1-1.33.1-2.66c0-1.33.9-2.18,2.23-2.18,1.56,0,1.56-.27,3.11-.27s1.56-.05,3.11-.05c1.2,0,2.38.2,3.54.4,1.16.2,2.07.77,2.99,1.31.92.54,2.01.95,2.58,1.91.57.96.87,2.35.87,3.91,0,.83-.29,1.61-.52,2.29-.25.74-.79,1.3-1.32,1.87-.95,1.02-.85,2.72.22,3.61.8.66,1.27,1.47,1.65,2.41.35.87.74,1.77.74,2.88Zm-4.04-13.05c0-1.01-.02-1.95-.45-2.59-.43-.64-1.08-1.14-1.74-1.49-.66-.34-1.48-.23-2.27-.35-.79-.12-1.52-.17-2.25-.17-1.61,0-1.61-.51-3.22-.51-1.33,0-2.25,1.33-2.25,2.66,0,1.23-.03,1.23-.03,2.46s-.07,1.23-.07,2.46c0,1.33,1.03,2.39,2.36,2.39,1.61,0,1.61.22,3.22.22.82,0,1.61-.35,2.4-.48.79-.12,1.44-.4,2.07-.76.63-.36,1.1-.81,1.51-1.44s.72-1.38.72-2.4Zm.99,13.05c0-.92.07-1.8-.21-2.49-.32-.79-.93-1.46-1.62-1.94-.7-.49-1.67-.51-2.66-.73-.82-.19-1.68-.26-2.7-.26-1.86,0-1.86-.51-3.72-.51-1.33,0-2.25,1.33-2.25,2.66,0,1.62-.03,1.62-.03,3.24s-.07,1.62-.07,3.24c0,1.33,1.03,2.39,2.36,2.39,1.86,0,1.86.22,3.72.22,1.02,0,1.92-.39,2.74-.58.98-.23,1.76-.64,2.45-1.15.67-.49,1.12-1.05,1.44-1.8.29-.68.55-1.4.55-2.29Z"/>
      <path class="cls-2" d="m88.64,246.25c-.15,0-.15-.37-.31-.37-.6,0-1.35-.04-1.53-.6-.52-1.57-.56-1.56-1.08-3.13s-.49-1.58-1-3.16c-.19-.57-.49-1.18-1.09-1.18-1.55,0-1.55.04-3.11.04s-1.56,0-3.11,0-1.56,0-3.11,0c-.6,0-.98.56-1.16,1.13-.51,1.57-.56,1.55-1.07,3.12s-.77,1.48-1.28,3.05c-.19.57-.56.99-1.16.99-.15,0-.15.09-.3.09-.95,0-1.53-.97-1.23-1.86.43-1.29.2-1.37.63-2.66s.64-1.22,1.07-2.52.55-1.25.98-2.55.39-1.3.82-2.6.1-1.4.53-2.7.44-1.29.88-2.59.83-1.16,1.26-2.46,0-1.44.44-2.73.75-1.19,1.18-2.49.44-1.3.87-2.59c.19-.57.58-.8,1.17-.8,1.04,0,1.04.07,2.09.07.6,0,1.06.13,1.25.7.43,1.29.26,1.35.69,2.64s.58,1.24,1.01,2.54.54,1.26.98,2.55.4,1.3.83,2.59.47,1.28.9,2.57.58,1.24,1.02,2.54.31,1.34.74,2.63.26,1.35.69,2.65.75,1.19,1.19,2.49,0,1.44.43,2.74c.3.9-.16,1.85-1.11,1.85Zm-5.55-12.74c-.48-1.49-.13-1.6-.61-3.09s-.96-1.33-1.45-2.82-.53-1.47-1.01-2.96c-.42-1.28-1.73-1.29-2.14-.01-.48,1.49-.86,1.36-1.34,2.85s-.45,1.5-.93,2.99-.48,1.49-.96,2.98c-.29.9.48,1.97,1.42,1.97,1.45,0,1.45-.28,2.9-.28s1.45.06,2.9.06c.94,0,1.52-.78,1.23-1.68Z"/>
      <path class="cls-2" d="m144.5,245.9c-.96,0-.96.2-1.92.2-.43,0-.75-.22-.94-.61-.57-1.2-.84-1.07-1.41-2.27s-.17-1.39-.75-2.58-.67-1.15-1.24-2.35-.57-1.2-1.15-2.4-.47-1.25-1.04-2.45-.66-1.16-1.23-2.36-.66-1.16-1.24-2.36-.8-1.09-1.37-2.3c-.51-1.07-2.01-.8-2.01.38,0,1.3-.05,1.3-.05,2.6s.31,1.3.31,2.6-.03,1.3-.03,2.6-.23,1.3-.23,2.6-.16,1.3-.16,2.6.53,1.3.53,2.61-.08,1.3-.08,2.61c0,.61-.7,1.36-1.31,1.36-.39,0-.39-.29-.79-.29-.61,0-1.21-.45-1.21-1.07,0-1.32.12-1.32.12-2.64s-.1-1.32-.1-2.64.17-1.32.17-2.64-.14-1.32-.14-2.64.28-1.32.28-2.64.02-1.32.02-2.65-.15-1.32-.15-2.65.13-1.32.13-2.65-.39-1.33-.39-2.65-.1-1.33-.1-2.65c0-.61.75-1.32,1.37-1.32,1.21,0,1.21.35,2.42.35.43,0,.88.07,1.07.46.61,1.29.47,1.36,1.08,2.64s.65,1.27,1.26,2.56.49,1.35,1.11,2.64.74,1.23,1.36,2.52.75,1.22,1.37,2.52.68,1.26,1.3,2.55.52,1.34,1.14,2.63c.51,1.07,2.34.74,2.34-.45,0-1.42-.23-1.42-.23-2.85s.03-1.42.03-2.85-.31-1.42-.31-2.85.33-1.43.33-2.85-.27-1.43-.27-2.86.31-1.43.31-2.86c0-.61.36-1.21.98-1.21.41,0,.41-.09.83-.09.61,0,1.13.68,1.13,1.3,0,1.32.14,1.32.14,2.64s-.02,1.32-.02,2.64.05,1.32.05,2.64-.02,1.32-.02,2.64.06,1.32.06,2.64-.52,1.32-.52,2.65.16,1.32.16,2.65.21,1.32.21,2.65.11,1.33.11,2.65-.07,1.33-.07,2.65c0,.61-.63.86-1.25.86Z"/>
      <path class="cls-2" d="m203.39,235.21c0,1.06-.39,2.04-.52,2.96-.15,1.05-.36,2.01-.68,2.88-.36.98-.77,1.89-1.35,2.64-.56.72-1.15,1.44-1.91,1.9s-1.6.82-2.52,1.03c-.81.18-1.74.09-2.7.09-1.22,0-2.4-.04-3.43-.34-1.12-.33-1.92-1.23-2.82-1.92-.75-.58-1.33-1.22-1.88-2.05-.51-.76-1.02-1.51-1.37-2.47-.26-.72-.04-1.49.68-1.76,0,0-.07-.18-.07-.18.73-.28,1.86.21,2.13.95s.4,1.47.75,2.04c.42.68.71,1.45,1.24,1.86.65.5,1.59.46,2.39.7.74.22,1.49.32,2.37.32,1.35,0,2.34-.2,3.18-.74.84-.54,1.69-1.02,2.13-1.86.45-.84.62-1.84.78-2.89.16-1.05.19-2.09.19-3.15,0-1.36.24-1.36.24-2.72s-.11-1.36-.11-2.72-.15-1.36-.15-2.72.15-1.36.15-2.72.23-1.36.23-2.73-.04-1.36-.04-2.73c0-.77.39-1.17,1.17-1.17.13,0,.13-.1.26-.1.77,0,1.39.5,1.39,1.27,0,1.36-.28,1.36-.28,2.72s.39,1.36.39,2.72.01,1.36.01,2.72-.2,1.36-.2,2.72.16,1.36.25,2.72.09,1.37.09,2.74Z"/>
      <path class="cls-2" d="m262.41,231.85c0,.95.06,1.89-.04,2.8s-.3,1.85-.5,2.76-.58,1.63-.88,2.39c-.32.82-.68,1.56-1.13,2.26-.43.68-.9,1.29-1.47,1.83s-1.07,1.19-1.77,1.6c-.74.44-1.63.59-2.53.8-.81.19-1.67.66-2.62.66s-1.79-.56-2.6-.74c-.91-.21-1.91-.12-2.65-.55-.7-.41-1.09-1.24-1.66-1.78s-.95-1.2-1.39-1.88c-.45-.7-1.08-1.31-1.4-2.12-.3-.77-.65-1.56-.83-2.43-.2-.9-.34-1.84-.44-2.78s.03-1.86.03-2.81.09-1.87.19-2.79.25-1.85.44-2.75c.19-.87.5-1.65.8-2.42.32-.82.58-1.62,1.04-2.33.44-.69.85-1.39,1.42-1.95s1.3-.92,2-1.34c.74-.44,1.51-.87,2.4-1.07.81-.19,1.7-.37,2.64-.37s1.76.47,2.57.66c.89.21,1.63.53,2.37.96.7.41,1.51.63,2.07,1.18s1.23,1.08,1.66,1.77.61,1.61.94,2.43c.31.77.56,1.59.75,2.45.21.9.3,1.83.4,2.77s.17,1.84.17,2.79Zm-2.95,0c0-.9-.15-1.75-.23-2.57-.09-.9-.17-1.75-.36-2.54-.17-.72-.24-1.44-.48-2.06-.27-.69-.6-1.33-.96-1.89-.67-1.07-1.56-1.92-2.55-2.48-.99-.56-2.17-.66-3.43-.66-1.57,0-2.91.2-3.93.93s-1.52,1.9-2.13,3.09c-.31.61-1.01,1.06-1.23,1.74s.07,1.42-.04,2.13c-.12.72-.63,1.39-.69,2.11s-.21,1.47-.21,2.19.32,1.45.38,2.17.25,1.42.37,2.14c.12.71.27,1.36.48,2,.22.68.32,1.37.64,1.97.61,1.16,1.41,2.17,2.43,2.91,1.02.74,2.36,1.13,3.93,1.13s2.94-.33,3.96-1.07c1.02-.74,1.77-1.82,2.38-2.98.61-1.17.91-2.51,1.15-3.96.12-.72.35-1.42.41-2.14s.09-1.46.09-2.18Z"/>
      <path class="cls-2" d="m318.71,238.68c0,1.2-.36,2.35-.86,3.32-.5.97-1.26,1.79-2.09,2.49s-1.78,1.33-2.87,1.71c-1.08.38-2.25.38-3.43.38-.79,0-1.55.03-2.27-.12s-1.48-.4-2.17-.71c-.72-.32-1.17-.93-1.73-1.41-.51-.44-1.62.1-1.62.78,0,.12.2.12.2.24,0,.43-.4.99-.83.99-.5,0-.5.06-.99.06-.43,0-.77-.62-.77-1.05,0-1.19-.04-1.19-.04-2.39s.07-1.2.07-2.39-.07-1.2-.07-2.39c0-.43.38-.73.81-.73.52,0,.52-.28,1.04-.28.39,0,.56.53.6.92.08.72.23,1.51.58,2.13.45.81,1.18,1.48,1.88,2.07.7.59,1.55,1.07,2.46,1.4.92.33,1.89.55,2.85.55.85,0,1.61-.37,2.33-.62.72-.24,1.22-.7,1.76-1.14.54-.45,1.12-.81,1.43-1.46.32-.64.35-1.38.35-2.2,0-.92-.31-1.57-.71-2.23-.4-.66-.61-1.51-1.29-1.98-.68-.47-1.61-.56-2.46-.89-.85-.33-1.57-1.05-2.45-1.37-1.04-.37-2.18-.48-3.22-.88-1.04-.4-1.99-.91-2.81-1.52s-1.64-1.3-2.15-2.19c-.51-.89-.69-2.09-.69-3.41,0-1.17.38-2.2.88-3.12.5-.92,1.08-1.76,1.88-2.39.81-.63,1.76-1.14,2.83-1.47,1.07-.33,2.19-.28,3.32-.28,1.39,0,2.65.22,3.83.79.55.27.89.73,1.32,1.13.49.45,1.62-.12,1.62-.79,0,0,.06,0,.06,0,0-.43.13-.74.56-.74.55,0,.55-.2,1.1-.2.43,0,.8.51.8.94,0,1.66-.19,1.66-.19,3.32s.36,1.66.36,3.32c0,.43-.55.95-.98.95-.57,0-.57-.06-1.15-.06-.38,0-.6-.4-.65-.78-.07-.62-.58-1.09-.85-1.66-.36-.75-.64-1.48-1.26-2.02-.62-.54-1.29-1.02-2.08-1.33-.79-.32-1.64-.59-2.52-.59-.78,0-1.56.08-2.26.26s-1.17.77-1.7,1.16c-.53.39-1.05.74-1.37,1.36-.32.62-.66,1.35-.66,2.19,0,.75.37,1.38.74,1.91.37.53.91.94,1.54,1.34.63.4,1.31.86,2.14,1.19.83.33,1.62.81,2.48,1.15,1.08.38,2.27.52,3.34.99,1.07.47,1.86,1.3,2.71,1.96.85.66,1.63,1.33,2.17,2.29.54.96,1.08,2.11,1.08,3.48Z"/>
    </g>
  </g>
</svg>